<svg width="440" height="474" viewBox="0 0 440 474" fill="none" xmlns="http://www.w3.org/2000/svg">
<circle cx="5.99221" cy="93.8098" r="5.24965" transform="rotate(-8.81526 5.99221 93.8098)" fill="#DCE2EE"/>
<circle cx="15.6462" cy="156.061" r="5.24965" transform="rotate(-8.81526 15.6462 156.061)" fill="#DCE2EE"/>
<circle cx="25.3003" cy="218.313" r="5.24965" transform="rotate(-8.81526 25.3003 218.313)" fill="#DCE2EE"/>
<circle cx="34.9542" cy="280.565" r="5.24965" transform="rotate(-8.81526 34.9542 280.565)" fill="#DCE2EE"/>
<circle cx="44.6084" cy="342.817" r="5.24965" transform="rotate(-8.81526 44.6084 342.817)" fill="#DCE2EE"/>
<circle cx="54.2623" cy="405.068" r="5.24965" transform="rotate(-8.81526 54.2623 405.068)" fill="#DCE2EE"/>
<circle cx="63.9165" cy="467.32" r="5.24965" transform="rotate(-8.81526 63.9165 467.32)" fill="#DCE2EE"/>
<circle cx="68.2439" cy="84.1556" r="5.24965" transform="rotate(-8.81526 68.2439 84.1556)" fill="#DCE2EE"/>
<circle cx="77.8979" cy="146.407" r="5.24965" transform="rotate(-8.81526 77.8979 146.407)" fill="#DCE2EE"/>
<circle cx="87.552" cy="208.659" r="5.24965" transform="rotate(-8.81526 87.552 208.659)" fill="#DCE2EE"/>
<circle cx="97.206" cy="270.911" r="5.24965" transform="rotate(-8.81526 97.206 270.911)" fill="#DCE2EE"/>
<circle cx="106.86" cy="333.162" r="5.24965" transform="rotate(-8.81526 106.86 333.162)" fill="#DCE2EE"/>
<circle cx="116.514" cy="395.414" r="5.24965" transform="rotate(-8.81526 116.514 395.414)" fill="#DCE2EE"/>
<circle cx="126.168" cy="457.666" r="5.24965" transform="rotate(-8.81526 126.168 457.666)" fill="#DCE2EE"/>
<circle cx="130.496" cy="74.5017" r="5.24965" transform="rotate(-8.81526 130.496 74.5017)" fill="#DCE2EE"/>
<circle cx="140.15" cy="136.753" r="5.24965" transform="rotate(-8.81526 140.15 136.753)" fill="#DCE2EE"/>
<circle cx="149.804" cy="199.005" r="5.24965" transform="rotate(-8.81526 149.804 199.005)" fill="#DCE2EE"/>
<circle cx="159.458" cy="261.257" r="5.24965" transform="rotate(-8.81526 159.458 261.257)" fill="#DCE2EE"/>
<circle cx="169.112" cy="323.509" r="5.24965" transform="rotate(-8.81526 169.112 323.509)" fill="#DCE2EE"/>
<circle cx="178.766" cy="385.76" r="5.24965" transform="rotate(-8.81526 178.766 385.76)" fill="#DCE2EE"/>
<circle cx="188.42" cy="448.012" r="5.24965" transform="rotate(-8.81526 188.42 448.012)" fill="#DCE2EE"/>
<circle cx="192.747" cy="64.8476" r="5.24965" transform="rotate(-8.81526 192.747 64.8476)" fill="#DCE2EE"/>
<circle cx="202.401" cy="127.099" r="5.24965" transform="rotate(-8.81526 202.401 127.099)" fill="#DCE2EE"/>
<circle cx="212.055" cy="189.351" r="5.24965" transform="rotate(-8.81526 212.055 189.351)" fill="#DCE2EE"/>
<circle cx="221.709" cy="251.603" r="5.24965" transform="rotate(-8.81526 221.709 251.603)" fill="#DCE2EE"/>
<circle cx="231.363" cy="313.854" r="5.24965" transform="rotate(-8.81526 231.363 313.854)" fill="#DCE2EE"/>
<circle cx="241.018" cy="376.106" r="5.24965" transform="rotate(-8.81526 241.018 376.106)" fill="#DCE2EE"/>
<circle cx="250.672" cy="438.358" r="5.24965" transform="rotate(-8.81526 250.672 438.358)" fill="#DCE2EE"/>
<circle cx="254.999" cy="55.1934" r="5.24965" transform="rotate(-8.81526 254.999 55.1934)" fill="#DCE2EE"/>
<circle cx="264.653" cy="117.445" r="5.24965" transform="rotate(-8.81526 264.653 117.445)" fill="#DCE2EE"/>
<circle cx="274.307" cy="179.697" r="5.24965" transform="rotate(-8.81526 274.307 179.697)" fill="#DCE2EE"/>
<circle cx="283.961" cy="241.949" r="5.24965" transform="rotate(-8.81526 283.961 241.949)" fill="#DCE2EE"/>
<circle cx="293.615" cy="304.2" r="5.24965" transform="rotate(-8.81526 293.615 304.2)" fill="#DCE2EE"/>
<circle cx="303.269" cy="366.452" r="5.24965" transform="rotate(-8.81526 303.269 366.452)" fill="#DCE2EE"/>
<circle cx="312.923" cy="428.704" r="5.24965" transform="rotate(-8.81526 312.923 428.704)" fill="#DCE2EE"/>
<circle cx="317.251" cy="45.5394" r="5.24965" transform="rotate(-8.81526 317.251 45.5394)" fill="#DCE2EE"/>
<circle cx="326.905" cy="107.791" r="5.24965" transform="rotate(-8.81526 326.905 107.791)" fill="#DCE2EE"/>
<circle cx="336.559" cy="170.043" r="5.24965" transform="rotate(-8.81526 336.559 170.043)" fill="#DCE2EE"/>
<circle cx="346.213" cy="232.295" r="5.24965" transform="rotate(-8.81526 346.213 232.295)" fill="#DCE2EE"/>
<circle cx="355.867" cy="294.546" r="5.24965" transform="rotate(-8.81526 355.867 294.546)" fill="#DCE2EE"/>
<circle cx="365.521" cy="356.798" r="5.24965" transform="rotate(-8.81526 365.521 356.798)" fill="#DCE2EE"/>
<circle cx="375.175" cy="419.05" r="5.24965" transform="rotate(-8.81526 375.175 419.05)" fill="#DCE2EE"/>
<circle cx="379.502" cy="35.8853" r="5.24965" transform="rotate(-8.81526 379.502 35.8853)" fill="#DCE2EE"/>
<circle cx="389.156" cy="98.137" r="5.24965" transform="rotate(-8.81526 389.156 98.137)" fill="#DCE2EE"/>
<circle cx="398.811" cy="160.389" r="5.24965" transform="rotate(-8.81526 398.811 160.389)" fill="#DCE2EE"/>
<circle cx="408.465" cy="222.64" r="5.24965" transform="rotate(-8.81526 408.465 222.64)" fill="#DCE2EE"/>
<circle cx="418.119" cy="284.892" r="5.24965" transform="rotate(-8.81526 418.119 284.892)" fill="#DCE2EE"/>
<circle cx="427.773" cy="347.144" r="5.24965" transform="rotate(-8.81526 427.773 347.144)" fill="#DCE2EE"/>
<circle cx="437.427" cy="409.396" r="5.24965" transform="rotate(-8.81526 437.427 409.396)" fill="#DCE2EE"/>
<circle cx="441.754" cy="26.2314" r="5.24965" transform="rotate(-8.81526 441.754 26.2314)" fill="#DCE2EE"/>
</svg>
