<svg width="152" height="64" viewBox="0 0 152 64" fill="none" xmlns="http://www.w3.org/2000/svg">
<path d="M52.4455 44.4332L54.4837 50.5574C54.5577 50.7722 54.5692 51.0036 54.5169 51.2247C54.4646 51.4458 54.3507 51.6476 54.1883 51.8065C52.4857 53.45 50.571 54.8583 48.495 55.9942C48.2805 56.114 48.0347 56.1659 47.79 56.1432C47.5454 56.1204 47.3134 56.0241 47.1246 55.8668C46.9358 55.7095 46.7992 55.4986 46.7327 55.2621C46.6662 55.0256 46.673 54.7744 46.7522 54.5418L50.141 44.4235C50.223 44.1823 50.3786 43.973 50.586 43.8251C50.7934 43.6771 51.042 43.5981 51.2967 43.5992C51.5515 43.6003 51.7994 43.6814 52.0056 43.831C52.2117 43.9807 52.3656 44.1913 52.4455 44.4332Z" fill="white"/>
<path d="M35.3026 5.98865C29.4924 6.06232 23.8657 8.03457 19.281 11.6045C14.6964 15.1745 11.4053 20.1462 9.90997 25.7612C8.41462 31.3761 8.79705 37.3261 10.9989 42.7035C13.2008 48.0808 17.1013 52.5903 22.1053 55.5439C22.6682 55.8729 23.3079 56.0474 23.9599 56.0499C24.6119 56.0524 25.253 55.8827 25.8184 55.558C26.3838 55.2333 26.8534 54.7651 27.1799 54.2008C27.5063 53.6364 27.678 52.9958 27.6776 52.3438V42.3127C27.6776 41.7385 27.5641 41.1699 27.3436 40.6397C27.1231 40.1095 26.8 39.6281 26.3928 39.2232C25.9857 38.8183 25.5025 38.4978 24.971 38.2803C24.4396 38.0627 23.8704 37.9524 23.2962 37.9556H22.6765C21.9955 37.953 21.3431 37.6814 20.8616 37.1998C20.38 36.7183 20.1084 36.0659 20.1058 35.3849C20.1071 34.6611 20.3952 33.9673 20.907 33.4555C21.4187 32.9437 22.1125 32.6557 22.8363 32.6544H37.7184C38.0905 32.6537 38.459 32.7266 38.8029 32.8687C39.1468 33.0108 39.4593 33.2194 39.7224 33.4825C39.9855 33.7456 40.1941 34.0581 40.3362 34.402C40.4783 34.7459 40.5511 35.1144 40.5505 35.4865C40.5505 35.8108 40.4866 36.1318 40.3626 36.4314C40.2385 36.7309 40.0566 37.0031 39.8273 37.2324C39.5981 37.4617 39.3259 37.6435 39.0263 37.7676C38.7268 37.8917 38.4057 37.9556 38.0815 37.9556H37.0696C35.9847 37.9556 34.9441 38.3866 34.1769 39.1538C33.4097 39.9209 32.9787 40.9615 32.9787 42.0465V56.5703C32.98 57.2915 33.2671 57.9828 33.7771 58.4927C34.287 59.0027 34.9783 59.2898 35.6995 59.2911H35.7383C36.8585 59.2933 37.9509 58.9422 38.8601 58.2877C39.7692 57.6332 40.4489 56.7086 40.8022 55.6456L47.6333 35.2687C47.8869 34.5052 48.3747 33.8411 49.0274 33.3709C49.6802 32.9007 50.4646 32.6482 51.2691 32.6495C52.0936 32.6505 52.8969 32.9104 53.5658 33.3925C54.2346 33.8746 54.7352 34.5546 54.9969 35.3364L57.1561 41.8286C57.2795 42.1962 57.5138 42.5167 57.8266 42.7459C58.1395 42.9751 58.5156 43.1018 58.9033 43.1087C59.2911 43.1156 59.6715 43.0023 59.9923 42.7844C60.3131 42.5664 60.5586 42.2545 60.695 41.8915C62.1915 37.8315 62.6773 33.4682 62.1104 29.1784C61.5436 24.8887 59.9411 20.8013 57.4414 17.2693C54.9417 13.7374 51.6199 10.8669 47.7628 8.90572C43.9057 6.94457 39.6292 5.95171 35.3026 6.01286V5.98865ZM47.4057 23.0832C46.7688 23.0832 46.1462 22.8942 45.6166 22.5403C45.0871 22.1863 44.6744 21.6832 44.4309 21.0946C44.1874 20.5061 44.1239 19.8585 44.2485 19.2339C44.3731 18.6092 44.6802 18.0356 45.131 17.5855C45.5817 17.1355 46.1558 16.8292 46.7806 16.7056C47.4055 16.5819 48.0529 16.6463 48.6411 16.8907C49.2293 17.1352 49.7318 17.5486 50.085 18.0786C50.4381 18.6087 50.6262 19.2316 50.6252 19.8686C50.6252 20.2915 50.5417 20.7103 50.3796 21.101C50.2174 21.4916 49.9798 21.8464 49.6802 22.1451C49.3807 22.4437 49.0252 22.6803 48.634 22.8413C48.2429 23.0022 47.8239 23.0845 47.4009 23.0832H47.4057Z" fill="white"/>
<path d="M77.3205 18.3803H74.5042V16.7207H82.1736V18.3803H79.3573V25.5217H77.3205V18.3803ZM88.6236 23.6357H84.5374L83.7579 25.5217H81.6708L85.5935 16.7207H87.6052L91.5405 25.5217H89.4031L88.6236 23.6357ZM87.9824 22.0893L86.5868 18.7198L85.1912 22.0893H87.9824ZM88.7995 31.7207L85.9203 40.5217H83.7327L81.7965 34.5622L79.7974 40.5217H77.6223L74.7306 31.7207H76.8428L78.8293 37.9065L80.9038 31.7207H82.7897L84.8014 37.9568L86.8507 31.7207H88.7995ZM89.9365 31.7207H91.9733V40.5217H89.9365V31.7207ZM95.885 33.3803H93.0687V31.7207H100.738V33.3803H97.9218V40.5217H95.885V33.3803ZM109.906 31.7207V40.5217H107.869V36.9133H103.871V40.5217H101.834V31.7207H103.871V35.1908H107.869V31.7207H109.906ZM83.5692 46.7207V55.5217H81.5324V51.9133H77.5343V55.5217H75.4975V46.7207H77.5343V50.1908H81.5324V46.7207H83.5692ZM92.4659 53.8872V55.5217H85.6515V46.7207H92.3025V48.3552H87.6757V50.2662H91.7619V51.8504H87.6757V53.8872H92.4659ZM102.158 46.7207V55.5217H100.486L96.0982 50.1782V55.5217H94.0865V46.7207H95.7713L100.147 52.0642V46.7207H102.158ZM104.241 46.7207H108.239C109.194 46.7207 110.037 46.9051 110.766 47.2739C111.503 47.6343 112.073 48.1456 112.476 48.8078C112.886 49.47 113.092 50.2411 113.092 51.1212C113.092 52.0013 112.886 52.7724 112.476 53.4346C112.073 54.0968 111.503 54.6122 110.766 54.981C110.037 55.3415 109.194 55.5217 108.239 55.5217H104.241V46.7207ZM108.138 53.8495C109.018 53.8495 109.718 53.6064 110.238 53.1203C110.766 52.6257 111.03 51.9594 111.03 51.1212C111.03 50.283 110.766 49.6208 110.238 49.1347C109.718 48.6402 109.018 48.3929 108.138 48.3929H106.277V53.8495H108.138ZM120.235 55.5217L118.538 53.07H118.437H116.665V55.5217H114.628V46.7207H118.437C119.217 46.7207 119.892 46.8506 120.462 47.1105C121.04 47.3703 121.484 47.7391 121.794 48.2169C122.104 48.6946 122.26 49.2604 122.26 49.9142C122.26 50.568 122.1 51.1338 121.782 51.6115C121.472 52.0809 121.027 52.4413 120.449 52.6928L122.423 55.5217H120.235ZM120.198 49.9142C120.198 49.4197 120.038 49.0425 119.72 48.7827C119.401 48.5144 118.936 48.3803 118.324 48.3803H116.665V51.4481H118.324C118.936 51.4481 119.401 51.314 119.72 51.0458C120.038 50.7775 120.198 50.4004 120.198 49.9142ZM129.669 53.6357H125.583L124.804 55.5217H122.717L126.639 46.7207H128.651L132.586 55.5217H130.449L129.669 53.6357ZM129.028 52.0893L127.633 48.7198L126.237 52.0893H129.028ZM137.183 52.4036V55.5217H135.147V52.3785L131.739 46.7207H133.902L136.253 50.6309L138.604 46.7207H140.603L137.183 52.4036Z" fill="white"/>
</svg>
