<svg width="25" height="25" viewBox="0 0 25 25" fill="none" xmlns="http://www.w3.org/2000/svg">
<path d="M3.80249 6.95801C3.25249 6.95801 2.80249 7.40801 2.80249 7.95801V20.958C2.80249 22.058 3.70249 22.958 4.80249 22.958H17.8025C18.3525 22.958 18.8025 22.508 18.8025 21.958C18.8025 21.408 18.3525 20.958 17.8025 20.958H5.80249C5.25249 20.958 4.80249 20.508 4.80249 19.958V7.95801C4.80249 7.40801 4.35249 6.95801 3.80249 6.95801ZM20.8025 2.95801H8.80249C7.70249 2.95801 6.80249 3.85801 6.80249 4.95801V16.958C6.80249 18.058 7.70249 18.958 8.80249 18.958H20.8025C21.9025 18.958 22.8025 18.058 22.8025 16.958V4.95801C22.8025 3.85801 21.9025 2.95801 20.8025 2.95801ZM18.8025 11.958H10.8025C10.2525 11.958 9.80249 11.508 9.80249 10.958C9.80249 10.408 10.2525 9.95801 10.8025 9.95801H18.8025C19.3525 9.95801 19.8025 10.408 19.8025 10.958C19.8025 11.508 19.3525 11.958 18.8025 11.958ZM14.8025 15.958H10.8025C10.2525 15.958 9.80249 15.508 9.80249 14.958C9.80249 14.408 10.2525 13.958 10.8025 13.958H14.8025C15.3525 13.958 15.8025 14.408 15.8025 14.958C15.8025 15.508 15.3525 15.958 14.8025 15.958ZM18.8025 7.95801H10.8025C10.2525 7.95801 9.80249 7.50801 9.80249 6.95801C9.80249 6.40801 10.2525 5.95801 10.8025 5.95801H18.8025C19.3525 5.95801 19.8025 6.40801 19.8025 6.95801C19.8025 7.50801 19.3525 7.95801 18.8025 7.95801Z" fill="white"/>
</svg>
