<svg width="25" height="25" viewBox="0 0 25 25" fill="none" xmlns="http://www.w3.org/2000/svg">
<path d="M11.0175 17.2342L14.9975 14.9542C15.6675 14.5742 15.6675 13.6042 14.9975 13.2142L11.0175 10.9342C10.3475 10.5542 9.51752 11.0442 9.51752 11.8042V16.3542C9.51752 17.1242 10.3475 17.6142 11.0175 17.2342ZM21.5175 6.08418H13.9275L16.8675 3.14418C17.0675 2.94418 17.0675 2.63418 16.8675 2.43418C16.6675 2.23418 16.3575 2.23418 16.1575 2.43418L12.5175 6.07418L8.87752 2.43418C8.67752 2.23418 8.36752 2.23418 8.16752 2.43418C7.96752 2.63418 7.96752 2.94418 8.16752 3.14418L11.1075 6.08418H3.51752C2.41752 6.08418 1.51752 6.97418 1.51752 8.08418V20.0842C1.51752 21.1842 2.41752 22.0842 3.51752 22.0842H21.5175C22.6175 22.0842 23.5175 21.1842 23.5175 20.0842V8.08418C23.5175 6.97418 22.6175 6.08418 21.5175 6.08418ZM20.5175 20.0842H4.51752C3.96752 20.0842 3.51752 19.6342 3.51752 19.0842V9.08418C3.51752 8.53418 3.96752 8.08418 4.51752 8.08418H20.5175C21.0675 8.08418 21.5175 8.53418 21.5175 9.08418V19.0842C21.5175 19.6342 21.0675 20.0842 20.5175 20.0842Z" fill="white"/>
</svg>
