<svg width="54" height="55" viewBox="0 0 54 55" fill="none" xmlns="http://www.w3.org/2000/svg">
<path d="M26.3026 0.988647C20.4924 1.06232 14.8657 3.03457 10.281 6.60454C5.69636 10.1745 2.40532 15.1462 0.90997 20.7612C-0.585382 26.3761 -0.202952 32.3261 1.99893 37.7035C4.20081 43.0808 8.10126 47.5903 13.1053 50.5439C13.6682 50.8729 14.3079 51.0474 14.9599 51.0499C15.6119 51.0524 16.253 50.8827 16.8184 50.558C17.3838 50.2333 17.8534 49.7651 18.1799 49.2008C18.5063 48.6364 18.678 47.9958 18.6776 47.3438V37.3127C18.6776 36.7385 18.5641 36.1699 18.3436 35.6397C18.1231 35.1095 17.8 34.6281 17.3928 34.2232C16.9857 33.8183 16.5025 33.4978 15.971 33.2803C15.4396 33.0627 14.8704 32.9524 14.2962 32.9556H13.6765C12.9955 32.953 12.3431 32.6814 11.8616 32.1998C11.38 31.7183 11.1084 31.0659 11.1058 30.3849C11.1071 29.6611 11.3952 28.9673 11.907 28.4555C12.4187 27.9437 13.1125 27.6557 13.8363 27.6544H28.7184C29.0905 27.6537 29.459 27.7266 29.8029 27.8687C30.1468 28.0108 30.4593 28.2194 30.7224 28.4825C30.9855 28.7456 31.1941 29.0581 31.3362 29.402C31.4783 29.7459 31.5511 30.1144 31.5505 30.4865C31.5505 30.8108 31.4866 31.1318 31.3626 31.4314C31.2385 31.7309 31.0566 32.0031 30.8273 32.2324C30.5981 32.4617 30.3259 32.6435 30.0263 32.7676C29.7268 32.8917 29.4057 32.9556 29.0815 32.9556H28.0696C26.9847 32.9556 25.9441 33.3866 25.1769 34.1538C24.4097 34.9209 23.9787 35.9615 23.9787 37.0465V51.5703C23.98 52.2915 24.2671 52.9828 24.7771 53.4927C25.287 54.0027 25.9783 54.2898 26.6995 54.2911H26.7383C27.8585 54.2933 28.9509 53.9422 29.8601 53.2877C30.7692 52.6332 31.4489 51.7086 31.8022 50.6456L38.6333 30.2687C38.8869 29.5052 39.3747 28.8411 40.0274 28.3709C40.6802 27.9007 41.4646 27.6482 42.2691 27.6495C43.0936 27.6505 43.8969 27.9104 44.5658 28.3925C45.2346 28.8746 45.7352 29.5546 45.9969 30.3364L48.1561 36.8286C48.2795 37.1962 48.5138 37.5167 48.8266 37.7459C49.1395 37.9751 49.5156 38.1018 49.9033 38.1087C50.2911 38.1156 50.6715 38.0023 50.9923 37.7844C51.3131 37.5664 51.5586 37.2545 51.695 36.8915C53.1915 32.8315 53.6773 28.4682 53.1104 24.1784C52.5436 19.8887 50.9411 15.8013 48.4414 12.2693C45.9417 8.73736 42.6199 5.86687 38.7628 3.90572C34.9057 1.94457 30.6292 0.951708 26.3026 1.01286V0.988647ZM38.4057 18.0832C37.7688 18.0832 37.1462 17.8942 36.6166 17.5403C36.0871 17.1863 35.6744 16.6832 35.4309 16.0946C35.1874 15.5061 35.1239 14.8585 35.2485 14.2339C35.3731 13.6092 35.6802 13.0356 36.131 12.5855C36.5817 12.1355 37.1558 11.8292 37.7806 11.7056C38.4055 11.5819 39.0529 11.6463 39.6411 11.8907C40.2293 12.1352 40.7318 12.5486 41.085 13.0786C41.4381 13.6087 41.6262 14.2316 41.6252 14.8686C41.6252 15.2915 41.5417 15.7103 41.3796 16.101C41.2174 16.4916 40.9798 16.8464 40.6802 17.1451C40.3807 17.4437 40.0252 17.6803 39.634 17.8413C39.2429 18.0022 38.8239 18.0845 38.4009 18.0832H38.4057Z" fill="white"/>
</svg>
