<svg width="24" height="25" viewBox="0 0 24 25" fill="none" xmlns="http://www.w3.org/2000/svg">
<path d="M4 18.6782H20C20.55 18.6782 21 18.2282 21 17.6782C21 17.1282 20.55 16.6782 20 16.6782H4C3.45 16.6782 3 17.1282 3 17.6782C3 18.2282 3.45 18.6782 4 18.6782ZM4 13.6782H20C20.55 13.6782 21 13.2282 21 12.6782C21 12.1282 20.55 11.6782 20 11.6782H4C3.45 11.6782 3 12.1282 3 12.6782C3 13.2282 3.45 13.6782 4 13.6782ZM3 7.67816C3 8.22816 3.45 8.67816 4 8.67816H20C20.55 8.67816 21 8.22816 21 7.67816C21 7.12816 20.55 6.67816 20 6.67816H4C3.45 6.67816 3 7.12816 3 7.67816Z" fill="white"/>
</svg>
