<svg width="90" height="312" viewBox="0 0 90 312" fill="none" xmlns="http://www.w3.org/2000/svg">
<path d="M169.688 174.792C165.564 153.265 199.673 108.838 196.07 98.2543C195.929 91.7914 175.956 79.485 165.881 71.5315C145.946 55.7939 119.733 45.2076 106.129 42.8029C88.8311 42.6163 63.3705 27.8019 52.8024 20.418C36.2309 2.93089 24.5371 0.0192203 20.7616 0.749272C-5.60563 1.18071 -0.441472 26.0332 5.43652 38.4055C19.1285 69.5192 68.8042 77.0382 83.3229 75.1845C94.9379 73.7016 122.255 83.8271 134.462 89.0751C140.712 90.7413 156.044 100.06 162.928 104.511L127.139 105.775C114.721 104.072 54.6109 124.258 27.5363 154.537C5.87664 178.76 18.0112 193.696 26.7859 198.137C51.3303 210.404 86.5644 181.143 98.1613 167.255C107.439 156.144 134.23 139.052 146.466 131.895C152.929 127.014 166.686 117.371 168.706 119.365C169.874 120.518 167.935 121.769 165.539 122.572C138.149 142.687 134.755 184.615 132.273 200.933C132.114 214.985 135.76 240.955 139.242 261.305C142.19 298.702 140.063 297.287 150.915 307.316C168.857 318.274 181.338 306.234 188.76 296.116C199.846 281.002 195.798 256.143 191.234 245.772C177.053 220.708 171.193 188.925 169.688 174.792Z" fill="#FFB800"/>
</svg>
