<svg width="949" height="688" viewBox="0 0 949 688" fill="none" xmlns="http://www.w3.org/2000/svg">
<path opacity="0.2" d="M261.901 362.163L240.711 398.31M261.901 362.163L199.578 398.31M261.901 362.163V434.458M261.901 362.163L199.578 326.016M261.901 362.163H220.768M261.901 362.163L324.224 326.016M261.901 362.163L324.224 398.31M261.901 362.163H303.034M261.901 362.163L283.091 398.31M261.901 362.163V289.869M261.901 362.163L283.091 326.016M261.901 362.163L240.711 326.016M240.711 398.31L261.901 434.458M240.711 398.31H199.578M261.901 434.458L199.578 398.31M261.901 434.458L199.578 470.605M261.901 434.458H220.768M261.901 434.458L324.224 398.31M261.901 434.458L283.091 398.31M261.901 434.458L324.224 469.981M261.901 434.458H303.034M261.901 434.458L324.224 470.605M261.901 434.458V506.752M261.901 434.458L283.091 470.605M261.901 434.458L240.711 470.605M199.578 398.31V326.016M199.578 398.31L220.768 362.163M199.578 398.31L137.255 362.163M199.578 398.31L178.388 362.163M199.578 398.31L137.255 434.458M199.578 398.31H158.445M199.578 398.31V470.605M199.578 398.31L220.768 434.458M199.578 398.31L178.388 434.458M199.578 326.016L220.768 362.163M199.578 326.016L137.255 362.163M199.578 326.016L178.388 362.163M199.578 326.016V253.722M199.578 326.016L261.901 289.869M199.578 326.016L220.768 289.869M199.578 326.016H240.711M199.578 326.016L178.388 289.869M199.578 326.016L137.255 289.869M199.578 326.016H158.445M137.255 362.163H178.388M137.255 362.163L158.445 398.31M137.255 362.163V434.458M137.255 362.163L74.9327 326.016M137.255 362.163V289.869M137.255 362.163L158.445 326.016M137.255 362.163L116.066 326.016M137.255 362.163L116.066 398.31M137.255 362.163L74.9327 398.31M137.255 362.163H96.1224M158.445 398.31L137.255 434.458M137.255 434.458L199.578 470.605M137.255 434.458H178.388M137.255 434.458V506.752M137.255 434.458L158.445 470.605M137.255 434.458L74.9327 470.605M137.255 434.458L116.066 470.605M137.255 434.458L116.066 398.31M137.255 434.458L74.9327 398.31M137.255 434.458H96.1224M199.578 470.605L220.768 434.458M199.578 470.605L178.388 434.458M199.578 470.605L261.901 506.752M199.578 470.605H240.711M199.578 470.605L220.768 506.752M199.578 470.605V542.899M199.578 470.605L178.388 506.752M199.578 470.605L137.255 506.752M199.578 470.605H158.445M386.546 362.163L365.357 398.31M386.546 362.163L324.224 398.31M386.546 362.163V434.458M386.546 362.163L324.224 326.016M386.546 362.163H345.413M386.546 362.163L448.869 326.016M386.546 362.163V289.869M386.546 362.163L407.736 326.016M386.546 362.163L365.357 326.016M386.546 362.163L448.869 398.31M386.546 362.163H427.679M386.546 362.163L407.736 398.31M365.357 398.31L386.546 434.458M365.357 398.31H324.224M386.546 434.458L324.224 398.31M386.546 434.458L324.224 469.981M386.546 434.458H345.413M386.546 434.458L448.869 398.31M386.546 434.458L407.736 398.31M386.546 434.458L448.869 469.981M386.546 434.458H427.679M386.546 434.458L448.869 470.605M386.546 434.458V506.752M386.546 434.458L407.736 470.605M386.546 434.458L324.224 470.605M386.546 434.458L365.357 470.605M324.224 398.31V326.016M324.224 398.31L345.413 362.163M324.224 398.31L303.034 362.163M324.224 398.31H283.091M324.224 398.31V469.981M324.224 398.31L345.413 434.458M324.224 398.31L303.034 434.458M324.224 326.016L345.413 362.163M324.224 326.016L303.034 362.163M324.224 326.016L303.034 289.869M324.224 326.016L261.901 289.869M324.224 326.016V253.722M324.224 326.016H283.091M324.224 326.016L386.546 289.869M324.224 326.016L345.413 289.869M324.224 326.016H365.357M324.224 469.981L345.413 434.458M324.224 469.981L303.034 434.458M261.901 145.28L240.711 181.427M261.901 145.28L199.578 181.427M261.901 145.28V217.574M261.901 145.28L199.578 109.133M261.901 145.28H220.768M261.901 145.28L324.224 109.133M261.901 145.28L324.224 182.05M261.901 145.28H303.034M261.901 145.28L283.091 181.427M240.711 181.427L261.901 217.574M240.711 181.427H199.578M261.901 217.574L199.578 181.427M261.901 217.574L199.578 253.722M261.901 217.574H220.768M261.901 217.574L324.224 182.05M261.901 217.574L283.091 181.427M261.901 217.574L324.224 253.722M261.901 217.574H303.034M261.901 217.574V289.869M261.901 217.574L283.091 253.722M261.901 217.574L240.711 253.722M199.578 181.427V109.133M199.578 181.427L220.768 145.28M199.578 181.427L137.255 145.28M199.578 181.427L178.388 145.28M199.578 181.427L137.255 217.574M199.578 181.427H158.445M199.578 181.427V253.722M199.578 181.427L220.768 217.574M199.578 181.427L178.388 217.574M199.578 109.133L220.768 145.28M199.578 109.133L137.255 145.28M199.578 109.133L178.388 145.28M199.578 109.133V36.8384M199.578 109.133L261.901 72.9856M199.578 109.133L220.768 72.9856M199.578 109.133L261.901 144.657M199.578 109.133H240.711M199.578 109.133L178.388 72.9856M199.578 109.133L137.255 72.9856M199.578 109.133H158.445M137.255 145.28H178.388M137.255 145.28L158.445 181.427M137.255 145.28V217.574M137.255 145.28L74.9327 109.133M137.255 145.28V72.9856M137.255 145.28L158.445 109.133M137.255 145.28L116.066 109.133M137.255 145.28L116.066 181.427M137.255 145.28L74.9327 181.427M137.255 145.28H96.1224M158.445 181.427L137.255 217.574M137.255 217.574L199.578 253.722M137.255 217.574H178.388M137.255 217.574V289.869M137.255 217.574L158.445 253.722M137.255 217.574L74.9327 253.722M137.255 217.574L116.066 253.722M137.255 217.574L116.066 181.427M137.255 217.574L74.9327 181.427M137.255 217.574H96.1224M199.578 253.722L220.768 217.574M199.578 253.722L178.388 217.574M199.578 253.722L261.901 289.869M199.578 253.722H240.711M199.578 253.722L220.768 289.869M199.578 253.722L178.388 289.869M199.578 253.722L137.255 289.869M199.578 253.722H158.445M386.546 145.903L365.357 181.427M386.546 145.903L324.224 182.05M386.546 145.903V217.574M386.546 145.903L324.224 109.133M386.546 145.903L345.413 145.28M386.546 145.903L448.869 109.133M386.546 145.903V72.9856M386.546 145.903L407.736 109.133M386.546 145.903L365.357 109.133M386.546 145.903L448.869 181.427M386.546 145.903L427.679 145.28M386.546 145.903L407.736 181.427M365.357 181.427L386.546 217.574M365.357 181.427L324.224 182.05M386.546 217.574L324.224 182.05M386.546 217.574L324.224 253.722M386.546 217.574H345.413M386.546 217.574L448.869 253.722M386.546 217.574V289.869M386.546 217.574L407.736 253.722M386.546 217.574L365.357 253.722M386.546 217.574L448.869 181.427M386.546 217.574L407.736 181.427M386.546 217.574L448.869 253.098M386.546 217.574H427.679M324.224 182.05V109.133M324.224 182.05L345.413 145.28M324.224 182.05L303.034 145.28M324.224 182.05L283.091 181.427M324.224 182.05V253.722M324.224 182.05L345.413 217.574M324.224 182.05L303.034 217.574M324.224 109.133L345.413 145.28M324.224 109.133L303.034 145.28M324.224 109.133L303.034 72.9856M324.224 109.133L261.901 72.9856M324.224 109.133V36.8384M324.224 109.133L261.901 144.657M324.224 109.133H283.091M324.224 109.133L386.546 72.9856M324.224 109.133L345.413 72.9856M324.224 109.133H365.357M324.224 253.722L345.413 217.574M324.224 253.722L303.034 217.574M324.224 253.722L303.034 289.869M324.224 253.722L261.901 289.869M324.224 253.722H283.091M324.224 253.722L386.546 289.869M324.224 253.722H365.357M324.224 253.722L345.413 289.869M303.034 289.869H261.901M261.901 289.869L283.091 253.722M261.901 289.869L240.711 253.722M261.901 289.869H220.768M261.901 289.869L283.091 326.016M261.901 289.869L240.711 326.016M448.869 253.722L427.679 289.869M448.869 253.722L386.546 289.869M448.869 253.722V326.016M448.869 253.722H407.736M448.869 253.722V325.393M448.869 253.722L511.192 217.574M448.869 253.722L511.192 289.869M448.869 253.722H490.002M448.869 253.722L470.059 289.869M427.679 289.869L448.869 326.016M427.679 289.869H386.546M427.679 289.869L448.869 325.393M448.869 326.016L386.546 289.869M448.869 326.016H407.736M448.869 326.016L511.192 289.869M448.869 326.016L470.059 289.869M448.869 326.016L511.192 362.163M448.869 326.016H490.002M448.869 326.016V398.31M448.869 326.016L470.059 362.163M448.869 326.016L427.679 362.163M386.546 289.869L407.736 253.722M386.546 289.869L365.357 253.722M386.546 289.869H345.413M386.546 289.869L407.736 326.016M386.546 289.869L365.357 326.016M386.546 289.869L448.869 325.393M573.515 253.722L552.325 289.869M573.515 253.722L511.192 289.869M573.515 253.722V326.016M573.515 253.722L511.192 217.574M573.515 253.722H532.382M573.515 253.722L635.837 217.574M573.515 253.722V181.427M573.515 253.722L594.704 217.574M573.515 253.722L552.325 217.574M573.515 253.722L635.837 289.869M573.515 253.722H614.648M573.515 253.722L594.704 289.869M552.325 289.869L573.515 326.016M552.325 289.869H511.192M573.515 326.016L511.192 289.869M573.515 326.016L511.192 362.163M573.515 326.016H532.382M573.515 326.016C573.515 326.016 611.499 348.047 635.837 362.163M573.515 326.016V398.31M573.515 326.016L594.704 362.163M573.515 326.016L552.325 362.163M573.515 326.016L635.837 289.869M573.515 326.016L594.704 289.869M573.515 326.016H614.648M511.192 289.869V217.574M511.192 289.869L532.382 253.722M511.192 289.869L490.002 253.722M511.192 289.869H470.059M511.192 289.869V362.163M511.192 289.869L532.382 326.016M511.192 289.869L490.002 326.016M511.192 217.574L532.382 253.722M511.192 217.574L490.002 253.722M511.192 217.574L490.002 181.427M511.192 217.574L448.869 181.427M511.192 217.574V145.28M511.192 217.574L448.869 253.098M511.192 217.574H470.059M511.192 217.574L573.515 181.427M511.192 217.574L532.382 181.427M511.192 217.574H552.325M511.192 362.163L532.382 326.016M511.192 362.163L490.002 326.016M511.192 362.163L490.002 398.31M511.192 362.163L448.869 398.31M511.192 362.163V434.458M511.192 362.163H470.059M511.192 362.163L573.515 398.31M511.192 362.163H552.325M511.192 362.163L532.382 398.31M490.002 398.31L511.192 434.458M490.002 398.31H448.869M511.192 434.458L448.869 398.31M511.192 434.458L448.869 469.981M511.192 434.458H470.059M511.192 434.458L573.515 398.31M511.192 434.458L532.382 398.31M511.192 434.458L573.515 469.981M511.192 434.458H552.325M511.192 434.458L573.515 470.605M511.192 434.458V506.752M511.192 434.458L532.382 470.605M511.192 434.458L448.869 470.605M511.192 434.458L490.002 470.605M448.869 398.31L470.059 362.163M448.869 398.31L427.679 362.163M448.869 398.31H407.736M448.869 398.31V469.981M448.869 398.31L470.059 434.458M448.869 398.31L427.679 434.458M448.869 469.981L470.059 434.458M448.869 469.981L427.679 434.458M635.837 362.163C627.562 376.279 614.648 398.31 614.648 398.31M635.837 362.163C611.499 376.279 573.515 398.31 573.515 398.31M635.837 362.163C635.837 390.396 635.837 406.225 635.837 434.458M635.837 362.163C619.774 362.163 594.704 362.163 594.704 362.163M635.837 362.163C660.176 348.047 673.822 340.132 698.16 326.016M635.837 362.163C635.837 333.93 635.837 289.869 635.837 289.869M635.837 362.163C644.113 348.047 657.027 326.016 657.027 326.016M635.837 362.163C627.562 348.047 614.648 326.016 614.648 326.016M635.837 362.163L698.16 326.016M635.837 362.163L698.16 398.31M635.837 362.163H676.97M635.837 362.163L657.027 398.31M635.837 362.163V434.458M614.648 398.31C614.648 398.31 627.562 420.341 635.837 434.458M614.648 398.31H573.515M635.837 434.458C611.499 420.341 573.515 398.31 573.515 398.31M635.837 434.458C611.499 448.33 573.515 469.981 573.515 469.981M635.837 434.458C619.774 434.458 594.704 434.458 594.704 434.458M635.837 434.458L698.16 398.31M635.837 434.458L657.027 398.31M635.837 434.458L698.16 470.605M635.837 434.458H676.97M635.837 434.458V506.752M635.837 434.458L657.027 470.605M635.837 434.458L573.515 470.605M635.837 434.458L614.648 470.605M573.515 398.31L594.704 362.163M573.515 398.31L552.325 362.163M573.515 398.31H532.382M573.515 398.31V469.981M573.515 398.31L594.704 434.458M573.515 398.31L552.325 434.458M573.515 469.981L594.704 434.458M573.515 469.981L552.325 434.458M324.224 36.8384L303.034 72.9856M324.224 36.8384L261.901 72.9856M324.224 36.8384L261.901 0.691223M324.224 36.8384H283.091M324.224 36.8384L386.546 0.691223M324.224 36.8384L386.546 72.9856M324.224 36.8384H365.357M324.224 36.8384L345.413 72.9856M303.034 72.9856H261.901M261.901 72.9856V0.691223M261.901 72.9856L283.091 36.8384M261.901 72.9856L199.578 36.8384M261.901 72.9856L240.711 36.8384M261.901 72.9856H220.768M261.901 72.9856V144.657M261.901 72.9856L283.091 109.133M261.901 72.9856L240.711 109.133M261.901 0.691223L283.091 36.8384M261.901 0.691223L199.578 36.8384M261.901 0.691223L240.711 36.8384M199.578 36.8384H240.711M199.578 36.8384L220.768 72.9856M199.578 36.8384L178.388 72.9856M199.578 36.8384L137.255 72.9856M199.578 36.8384L137.255 0.691223M199.578 36.8384H158.445M261.901 144.657L283.091 109.133M261.901 144.657L240.711 109.133M448.869 36.8384L427.679 72.9856M448.869 36.8384L386.546 72.9856M448.869 36.8384V109.133M448.869 36.8384L386.546 0.691223M448.869 36.8384H407.736M448.869 36.8384L511.192 0.691223M448.869 36.8384L511.192 72.9856M448.869 36.8384H490.002M448.869 36.8384L470.059 72.9856M427.679 72.9856L448.869 109.133M427.679 72.9856H386.546M448.869 109.133L386.546 72.9856M448.869 109.133H407.736M448.869 109.133L511.192 72.9856M448.869 109.133L470.059 72.9856M448.869 109.133L511.192 145.28M448.869 109.133H490.002M448.869 109.133V181.427M448.869 109.133L470.059 145.28M448.869 109.133L427.679 145.28M386.546 72.9856V0.691223M386.546 72.9856L407.736 36.8384M386.546 72.9856L365.357 36.8384M386.546 72.9856H345.413M386.546 72.9856L407.736 109.133M386.546 72.9856L365.357 109.133M386.546 0.691223L407.736 36.8384M386.546 0.691223L365.357 36.8384M573.515 36.8384L552.325 72.9856M573.515 36.8384L511.192 72.9856M573.515 36.8384V109.133M573.515 36.8384L511.192 0.691223M573.515 36.8384H532.382M573.515 36.8384L635.837 0.691223M573.515 36.8384L635.837 72.9856M573.515 36.8384H614.648M573.515 36.8384L594.704 72.9856M552.325 72.9856L573.515 109.133M552.325 72.9856H511.192M573.515 109.133L511.192 72.9856M573.515 109.133L511.192 145.28M573.515 109.133H532.382M573.515 109.133L635.837 145.28M573.515 109.133V181.427M573.515 109.133L594.704 145.28M573.515 109.133L552.325 145.28M573.515 109.133L635.837 72.9856M573.515 109.133L594.704 72.9856M573.515 109.133H614.648M511.192 72.9856V0.691223M511.192 72.9856L532.382 36.8384M511.192 72.9856L490.002 36.8384M511.192 72.9856H470.059M511.192 72.9856V145.28M511.192 72.9856L532.382 109.133M511.192 72.9856L490.002 109.133M511.192 0.691223L532.382 36.8384M511.192 0.691223L490.002 36.8384M511.192 145.28L532.382 109.133M511.192 145.28L490.002 109.133M511.192 145.28L490.002 181.427M511.192 145.28L448.869 181.427M511.192 145.28H470.059M511.192 145.28L573.515 181.427M511.192 145.28H552.325M511.192 145.28L532.382 181.427M490.002 181.427H448.869M448.869 181.427L470.059 145.28M448.869 181.427L427.679 145.28M448.869 181.427H407.736M448.869 181.427V253.098M448.869 181.427L470.059 217.574M448.869 181.427L427.679 217.574M448.869 253.098L470.059 217.574M448.869 253.098L427.679 217.574M635.837 145.28L614.648 181.427M635.837 145.28L573.515 181.427M635.837 145.28V217.574M635.837 145.28H594.704M635.837 145.28L698.16 109.133M635.837 145.28V72.9856M635.837 145.28L657.027 109.133M635.837 145.28L614.648 109.133M635.837 145.28L698.16 181.427M635.837 145.28H676.97M635.837 145.28L657.027 181.427M614.648 181.427L635.837 217.574M614.648 181.427H573.515M635.837 217.574L573.515 181.427M635.837 217.574H594.704M635.837 217.574L698.16 253.722M635.837 217.574V289.869M635.837 217.574L657.027 253.722M635.837 217.574L614.648 253.722M635.837 217.574L698.16 181.427M635.837 217.574L657.027 181.427M635.837 217.574H676.97M573.515 181.427L594.704 145.28M573.515 181.427L552.325 145.28M573.515 181.427H532.382M573.515 181.427L594.704 217.574M573.515 181.427L552.325 217.574M698.16 253.722L676.97 289.869M698.16 253.722L635.837 289.869M698.16 253.722C698.16 253.722 698.16 297.783 698.16 326.016M698.16 253.722H657.027M698.16 253.722L760.483 217.574M698.16 253.722V181.427M698.16 253.722L719.35 217.574M698.16 253.722L676.97 217.574M698.16 253.722L760.483 289.869M698.16 253.722H739.293M698.16 253.722L719.35 289.869M698.16 253.722V326.016M676.97 289.869C676.97 289.869 689.885 311.9 698.16 326.016M676.97 289.869H635.837M698.16 326.016C673.822 311.9 635.837 289.869 635.837 289.869M698.16 326.016C682.097 326.016 657.027 326.016 657.027 326.016M698.16 326.016L760.483 362.163M698.16 326.016V398.31M698.16 326.016L719.35 362.163M698.16 326.016L676.97 362.163M698.16 326.016L760.483 289.869M698.16 326.016L719.35 289.869M698.16 326.016H739.293M635.837 289.869L657.027 253.722M635.837 289.869L614.648 253.722M635.837 289.869H594.704M635.837 289.869L657.027 326.016M635.837 289.869L614.648 326.016M698.16 36.8384L676.97 72.9856M698.16 36.8384L635.837 72.9856M698.16 36.8384V109.133M698.16 36.8384L635.837 0.691223M698.16 36.8384H657.027M698.16 36.8384L760.483 0.691223M698.16 36.8384L760.483 72.9856M698.16 36.8384H739.293M698.16 36.8384L719.35 72.9856M676.97 72.9856L698.16 109.133M676.97 72.9856H635.837M698.16 109.133L635.837 72.9856M698.16 109.133H657.027M698.16 109.133L760.483 145.28M698.16 109.133V181.427M698.16 109.133L719.35 145.28M698.16 109.133L676.97 145.28M698.16 109.133L760.483 72.9856M698.16 109.133L719.35 72.9856M698.16 109.133H739.293M635.837 72.9856V0.691223M635.837 72.9856L657.027 36.8384M635.837 72.9856L614.648 36.8384M635.837 72.9856H594.704M635.837 72.9856L657.027 109.133M635.837 72.9856L614.648 109.133M635.837 0.691223L657.027 36.8384M635.837 0.691223L614.648 36.8384M178.388 289.869H137.255M137.255 289.869L158.445 253.722M137.255 289.869L74.9327 253.722M137.255 289.869L116.066 253.722M137.255 289.869L74.9327 326.016M137.255 289.869H96.1224M137.255 289.869L158.445 326.016M137.255 289.869L116.066 326.016M74.9327 253.722H116.066M74.9327 253.722L96.1224 289.869M74.9327 253.722V326.016M74.9327 253.722L12.61 217.574M74.9327 253.722V181.427M74.9327 253.722L96.1224 217.574M74.9327 253.722L53.743 217.574M74.9327 253.722L53.743 289.869M74.9327 253.722L12.61 289.869M74.9327 253.722H33.7997M96.1224 289.869L74.9327 326.016M74.9327 326.016H116.066M74.9327 326.016V398.31M74.9327 326.016L96.1224 362.163M74.9327 326.016L12.61 362.163M74.9327 326.016L53.743 362.163M74.9327 326.016L53.743 289.869M74.9327 326.016L12.61 289.869M74.9327 326.016H33.7997M760.483 362.163L739.293 398.31M760.483 362.163L698.16 398.31M760.483 362.163V434.458M760.483 362.163H719.35M760.483 362.163L822.806 326.016M760.483 362.163L822.806 398.31M760.483 362.163H801.616M760.483 362.163L781.673 398.31M760.483 362.163V289.869M760.483 362.163L781.673 326.016M760.483 362.163L739.293 326.016M739.293 398.31L760.483 434.458M739.293 398.31H698.16M760.483 434.458L698.16 398.31M760.483 434.458L698.16 470.605M760.483 434.458H719.35M760.483 434.458L822.806 398.31M760.483 434.458L781.673 398.31M760.483 434.458L822.806 470.605M760.483 434.458H801.616M760.483 434.458V506.752M760.483 434.458L781.673 470.605M760.483 434.458L739.293 470.605M698.16 398.31L719.35 362.163M698.16 398.31L676.97 362.163M698.16 398.31H657.027M698.16 398.31V470.605M698.16 398.31L719.35 434.458M698.16 398.31L676.97 434.458M698.16 470.605L719.35 434.458M698.16 470.605L676.97 434.458M698.16 470.605L760.483 506.752M698.16 470.605H739.293M698.16 470.605L719.35 506.752M698.16 470.605V542.899M698.16 470.605L676.97 506.752M698.16 470.605L635.837 506.752M698.16 470.605H657.027M760.483 145.28L739.293 181.427M760.483 145.28L698.16 181.427M760.483 145.28V217.574M760.483 145.28H719.35M760.483 145.28L822.806 109.133M760.483 145.28V72.9856M760.483 145.28L781.673 109.133M760.483 145.28L739.293 109.133M760.483 145.28L822.806 181.427M760.483 145.28H801.616M760.483 145.28L781.673 181.427M739.293 181.427L760.483 217.574M739.293 181.427H698.16M760.483 217.574L698.16 181.427M760.483 217.574H719.35M760.483 217.574L822.806 181.427M760.483 217.574L781.673 181.427M760.483 217.574L822.806 253.722M760.483 217.574H801.616M760.483 217.574V289.869M760.483 217.574L781.673 253.722M760.483 217.574L739.293 253.722M698.16 181.427L719.35 145.28M698.16 181.427L676.97 145.28M698.16 181.427H657.027M698.16 181.427L719.35 217.574M698.16 181.427L676.97 217.574M822.806 36.8384L801.616 72.9856M822.806 36.8384L760.483 72.9856M822.806 36.8384V109.133M822.806 36.8384L760.483 0.691223M822.806 36.8384H781.673M822.806 36.8384L885.128 0.691223M822.806 36.8384L885.128 72.9856M822.806 36.8384H863.939M822.806 36.8384L843.995 72.9856M801.616 72.9856L822.806 109.133M801.616 72.9856H760.483M822.806 109.133L760.483 72.9856M822.806 109.133H781.673M822.806 109.133L885.128 145.28M822.806 109.133V181.427M822.806 109.133L843.995 145.28M822.806 109.133L801.616 145.28M822.806 109.133L885.128 72.9856M822.806 109.133L843.995 72.9856M822.806 109.133H863.939M760.483 72.9856V0.691223M760.483 72.9856L781.673 36.8384M760.483 72.9856L739.293 36.8384M760.483 72.9856H719.35M760.483 72.9856L781.673 109.133M760.483 72.9856L739.293 109.133M760.483 0.691223L781.673 36.8384M760.483 0.691223L739.293 36.8384M885.128 145.28L863.939 181.427M885.128 145.28L822.806 181.427M885.128 145.28V217.574M885.128 145.28H843.995M885.128 145.28L947.451 109.133M885.128 145.28V72.9856M885.128 145.28L906.318 109.133M885.128 145.28L863.939 109.133M863.939 181.427L885.128 217.574M863.939 181.427H822.806M885.128 217.574L822.806 181.427M885.128 217.574L822.806 253.722M885.128 217.574H843.995M885.128 217.574L947.451 253.722M885.128 217.574V289.869M885.128 217.574L906.318 253.722M885.128 217.574L863.939 253.722M822.806 181.427L843.995 145.28M822.806 181.427L801.616 145.28M822.806 181.427H781.673M822.806 181.427V253.722M822.806 181.427L843.995 217.574M822.806 181.427L801.616 217.574M822.806 253.722L843.995 217.574M822.806 253.722L801.616 217.574M822.806 253.722L885.128 289.869M822.806 253.722H863.939M822.806 253.722L843.995 289.869M822.806 253.722V326.016M822.806 253.722L801.616 289.869M822.806 253.722L760.483 289.869M822.806 253.722H781.673M885.128 362.163L863.939 398.31M885.128 362.163L822.806 398.31M885.128 362.163V434.458M885.128 362.163L822.806 326.016M885.128 362.163H843.995M885.128 362.163L947.451 326.016M885.128 362.163V289.869M885.128 362.163L906.318 326.016M885.128 362.163L863.939 326.016M863.939 398.31L885.128 434.458M863.939 398.31H822.806M885.128 434.458L822.806 398.31M885.128 434.458L822.806 470.605M885.128 434.458H843.995M885.128 434.458L947.451 470.605M885.128 434.458V506.752M885.128 434.458L906.318 470.605M885.128 434.458L863.939 470.605M822.806 398.31V326.016M822.806 398.31L843.995 362.163M822.806 398.31L801.616 362.163M822.806 398.31H781.673M822.806 398.31V470.605M822.806 398.31L843.995 434.458M822.806 398.31L801.616 434.458M822.806 326.016L843.995 362.163M822.806 326.016L801.616 362.163M822.806 326.016L885.128 289.869M822.806 326.016L843.995 289.869M822.806 326.016H863.939M822.806 326.016L801.616 289.869M822.806 326.016L760.483 289.869M822.806 326.016H781.673M822.806 470.605L843.995 434.458M822.806 470.605L801.616 434.458M822.806 470.605L801.616 506.752M822.806 470.605L760.483 506.752M822.806 470.605V542.899M822.806 470.605H781.673M822.806 470.605L885.128 506.752M822.806 470.605H863.939M822.806 470.605L843.995 506.752M801.616 506.752L822.806 542.899M801.616 506.752H760.483M822.806 542.899L760.483 506.752M822.806 542.899L760.483 579.046M822.806 542.899H781.673M822.806 542.899L885.128 506.752M822.806 542.899L843.995 506.752M822.806 542.899L885.128 579.046M822.806 542.899H863.939M822.806 542.899V615.193M822.806 542.899L843.995 579.046M822.806 542.899L801.616 579.046M760.483 506.752L781.673 470.605M760.483 506.752L739.293 470.605M760.483 506.752L698.16 542.899M760.483 506.752H719.35M760.483 506.752V579.046M760.483 506.752L781.673 542.899M760.483 506.752L739.293 542.899M719.35 506.752L698.16 542.899M698.16 542.899L760.483 579.046M698.16 542.899H739.293M698.16 542.899L676.97 506.752M698.16 542.899L635.837 506.752M698.16 542.899L635.837 579.046M698.16 542.899H657.027M698.16 542.899V615.193M698.16 542.899L719.35 579.046M698.16 542.899L676.97 579.046M760.483 579.046L781.673 542.899M760.483 579.046L739.293 542.899M760.483 579.046L739.293 615.193M760.483 579.046L698.16 615.193M760.483 579.046V651.341M760.483 579.046H719.35M760.483 579.046L822.806 615.193M760.483 579.046H801.616M760.483 579.046L781.673 615.193M947.451 470.605L926.261 506.752M947.451 470.605L885.128 506.752M947.451 470.605V542.899M947.451 470.605H906.318M926.261 506.752L947.451 542.899M926.261 506.752H885.128M947.451 542.899L885.128 506.752M947.451 542.899L885.128 579.046M947.451 542.899H906.318M885.128 506.752L906.318 470.605M885.128 506.752L863.939 470.605M885.128 506.752H843.995M885.128 506.752V579.046M885.128 506.752L906.318 542.899M885.128 506.752L863.939 542.899M885.128 579.046L906.318 542.899M885.128 579.046L863.939 542.899M885.128 579.046L863.939 615.193M885.128 579.046L822.806 615.193M885.128 579.046V651.341M885.128 579.046H843.995M676.97 506.752H635.837M635.837 506.752L657.027 470.605M635.837 506.752L573.515 470.605M635.837 506.752L614.648 470.605M635.837 506.752L573.515 542.899M635.837 506.752H594.704M635.837 506.752V579.046M635.837 506.752L657.027 542.899M635.837 506.752L614.648 542.899M573.515 470.605H614.648M573.515 470.605L594.704 506.752M573.515 470.605V542.899M573.515 470.605L552.325 506.752M573.515 470.605L511.192 506.752M573.515 470.605H532.382M594.704 506.752L573.515 542.899M573.515 542.899L635.837 579.046M573.515 542.899H614.648M573.515 542.899L552.325 506.752M573.515 542.899L511.192 506.752M573.515 542.899L511.192 579.046M573.515 542.899H532.382M573.515 542.899V615.193M573.515 542.899L594.704 579.046M573.515 542.899L552.325 579.046M635.837 579.046L657.027 542.899M635.837 579.046L614.648 542.899M635.837 579.046L614.648 615.193M635.837 579.046L573.515 615.193M635.837 579.046V651.341M635.837 579.046H594.704M635.837 579.046L698.16 615.193M635.837 579.046H676.97M635.837 579.046L657.027 615.193M448.869 470.605L427.679 506.752M448.869 470.605L386.546 506.752M448.869 470.605V542.899M448.869 470.605H407.736M448.869 470.605L511.192 506.752M448.869 470.605H490.002M448.869 470.605L470.059 506.752M427.679 506.752L448.869 542.899M427.679 506.752H386.546M448.869 542.899L386.546 506.752M448.869 542.899L386.546 579.046M448.869 542.899H407.736M448.869 542.899L511.192 506.752M448.869 542.899L470.059 506.752M448.869 542.899L511.192 579.046M448.869 542.899H490.002M448.869 542.899V615.193M448.869 542.899L470.059 579.046M448.869 542.899L427.679 579.046M386.546 506.752L407.736 470.605M386.546 506.752L324.224 470.605M386.546 506.752L365.357 470.605M386.546 506.752L324.224 542.899M386.546 506.752H345.413M386.546 506.752V579.046M386.546 506.752L407.736 542.899M386.546 506.752L365.357 542.899M324.224 470.605H365.357M324.224 470.605L345.413 506.752M324.224 470.605V542.899M324.224 470.605L303.034 506.752M324.224 470.605L261.901 506.752M324.224 470.605H283.091M345.413 506.752L324.224 542.899M324.224 542.899L386.546 579.046M324.224 542.899H365.357M324.224 542.899L303.034 506.752M324.224 542.899L261.901 506.752M324.224 542.899L261.901 579.046M324.224 542.899H283.091M324.224 542.899V615.193M324.224 542.899L345.413 579.046M324.224 542.899L303.034 579.046M386.546 579.046L407.736 542.899M386.546 579.046L365.357 542.899M386.546 579.046L365.357 615.193M386.546 579.046L324.224 615.193M386.546 579.046V651.341M386.546 579.046H345.413M386.546 579.046L448.869 615.193M386.546 579.046H427.679M386.546 579.046L407.736 615.193M552.325 506.752H511.192M511.192 506.752L532.382 470.605M511.192 506.752L490.002 470.605M511.192 506.752H470.059M511.192 506.752V579.046M511.192 506.752L532.382 542.899M511.192 506.752L490.002 542.899M511.192 579.046L532.382 542.899M511.192 579.046L490.002 542.899M511.192 579.046L490.002 615.193M511.192 579.046L448.869 615.193M511.192 579.046V651.341M511.192 579.046H470.059M511.192 579.046L573.515 615.193M511.192 579.046H552.325M511.192 579.046L532.382 615.193M303.034 506.752H261.901M261.901 506.752L283.091 470.605M261.901 506.752L240.711 470.605M261.901 506.752L199.578 542.899M261.901 506.752H220.768M261.901 506.752V579.046M261.901 506.752L283.091 542.899M261.901 506.752L240.711 542.899M220.768 506.752L199.578 542.899M199.578 542.899L261.901 579.046M199.578 542.899H240.711M199.578 542.899L178.388 506.752M199.578 542.899L137.255 506.752M199.578 542.899L137.255 579.046M199.578 542.899H158.445M199.578 542.899V615.193M199.578 542.899L220.768 579.046M199.578 542.899L178.388 579.046M261.901 579.046L283.091 542.899M261.901 579.046L240.711 542.899M261.901 579.046L240.711 615.193M261.901 579.046L199.578 615.193M261.901 579.046V651.341M261.901 579.046H220.768M261.901 579.046L324.224 615.193M261.901 579.046H303.034M261.901 579.046L283.091 615.193M74.9327 470.605L53.743 506.752M74.9327 470.605L12.61 506.752M74.9327 470.605V542.899M74.9327 470.605L12.61 434.458M74.9327 470.605H33.7997M74.9327 470.605L137.255 506.752M74.9327 470.605H116.066M74.9327 470.605L96.1224 506.752M74.9327 470.605V398.31M74.9327 470.605L96.1224 434.458M74.9327 470.605L53.743 434.458M53.743 506.752L74.9327 542.899M53.743 506.752H12.61M74.9327 542.899L12.61 506.752M74.9327 542.899L12.61 579.046M74.9327 542.899H33.7997M74.9327 542.899L137.255 506.752M74.9327 542.899L96.1224 506.752M74.9327 542.899L137.255 579.046M74.9327 542.899H116.066M74.9327 542.899V615.193M74.9327 542.899L96.1224 579.046M74.9327 542.899L53.743 579.046M12.61 506.752V434.458M12.61 506.752L33.7997 470.605M12.61 506.752L-49.7128 470.605M12.61 506.752L-8.57977 470.605M12.61 506.752L-49.7128 542.899M12.61 506.752H-28.523M12.61 506.752V579.046M12.61 506.752L33.7997 542.899M12.61 506.752L-8.57977 542.899M12.61 434.458L33.7997 470.605M12.61 434.458L-49.7128 470.605M12.61 434.458L-8.57977 470.605M12.61 434.458V362.163M12.61 434.458L74.9327 398.31M12.61 434.458L33.7997 398.31M12.61 434.458H53.743M-49.7128 470.605H-8.57977M-49.7128 470.605L-28.523 506.752M-49.7128 470.605V542.899M-28.523 506.752L-49.7128 542.899M-49.7128 542.899L12.61 579.046M-49.7128 542.899H-8.57977M12.61 579.046L33.7997 542.899M12.61 579.046L-8.57977 542.899M12.61 579.046L74.9327 615.193M12.61 579.046H53.743M12.61 579.046L33.7997 615.193M12.61 579.046V651.341M178.388 506.752H137.255M137.255 506.752L158.445 470.605M137.255 506.752L116.066 470.605M137.255 506.752H96.1224M137.255 506.752V579.046M137.255 506.752L158.445 542.899M137.255 506.752L116.066 542.899M137.255 579.046L158.445 542.899M137.255 579.046L116.066 542.899M137.255 579.046L116.066 615.193M137.255 579.046L74.9327 615.193M137.255 579.046V651.341M137.255 579.046H96.1224M137.255 579.046L199.578 615.193M137.255 579.046H178.388M137.255 579.046L158.445 615.193M947.451 253.722L926.261 289.869M947.451 253.722L885.128 289.869M947.451 253.722V326.016M947.451 253.722H906.318M926.261 289.869L947.451 326.016M926.261 289.869H885.128M947.451 326.016L885.128 289.869M947.451 326.016H906.318M885.128 289.869L906.318 253.722M885.128 289.869L863.939 253.722M885.128 289.869H843.995M885.128 289.869L906.318 326.016M885.128 289.869L863.939 326.016M947.451 36.8384L926.261 72.9856M947.451 36.8384L885.128 72.9856M947.451 36.8384V109.133M947.451 36.8384L885.128 0.691223M947.451 36.8384H906.318M926.261 72.9856L947.451 109.133M926.261 72.9856H885.128M947.451 109.133L885.128 72.9856M947.451 109.133H906.318M885.128 72.9856V0.691223M885.128 72.9856L906.318 36.8384M885.128 72.9856L863.939 36.8384M885.128 72.9856H843.995M885.128 72.9856L906.318 109.133M885.128 72.9856L863.939 109.133M885.128 0.691223L906.318 36.8384M885.128 0.691223L863.939 36.8384M178.388 72.9856H137.255M137.255 72.9856V0.691223M137.255 72.9856L158.445 36.8384M137.255 72.9856L74.9327 36.8384M137.255 72.9856L116.066 36.8384M137.255 72.9856L74.9327 109.133M137.255 72.9856H96.1224M137.255 72.9856L158.445 109.133M137.255 72.9856L116.066 109.133M137.255 0.691223L158.445 36.8384M137.255 0.691223L74.9327 36.8384M137.255 0.691223L116.066 36.8384M74.9327 36.8384H116.066M74.9327 36.8384L96.1224 72.9856M74.9327 36.8384V109.133M74.9327 36.8384L53.743 72.9856M74.9327 36.8384L12.61 72.9856M74.9327 36.8384L12.61 0.691223M74.9327 36.8384H33.7997M96.1224 72.9856L74.9327 109.133M74.9327 109.133H116.066M74.9327 109.133V181.427M74.9327 109.133L96.1224 145.28M74.9327 109.133L12.61 145.28M74.9327 109.133L53.743 145.28M74.9327 109.133L53.743 72.9856M74.9327 109.133L12.61 72.9856M74.9327 109.133H33.7997M116.066 181.427H74.9327M74.9327 181.427L96.1224 145.28M74.9327 181.427L12.61 145.28M74.9327 181.427L53.743 145.28M74.9327 181.427L12.61 217.574M74.9327 181.427H33.7997M74.9327 181.427L96.1224 217.574M74.9327 181.427L53.743 217.574M12.61 145.28H53.743M12.61 145.28L33.7997 181.427M12.61 145.28V217.574M12.61 145.28L-49.7128 109.133M12.61 145.28V72.9856M12.61 145.28L33.7997 109.133M12.61 145.28L-8.57977 109.133M33.7997 181.427L12.61 217.574M12.61 217.574H53.743M12.61 217.574V289.869M12.61 217.574L33.7997 253.722M12.61 217.574L-49.7128 253.722M12.61 217.574L-8.57977 253.722M116.066 398.31H74.9327M74.9327 398.31L96.1224 362.163M74.9327 398.31L12.61 362.163M74.9327 398.31L53.743 362.163M74.9327 398.31H33.7997M74.9327 398.31L96.1224 434.458M74.9327 398.31L53.743 434.458M12.61 362.163H53.743M12.61 362.163L33.7997 398.31M12.61 362.163L-49.7128 326.016M12.61 362.163V289.869M12.61 362.163L33.7997 326.016M12.61 362.163L-8.57977 326.016M53.743 289.869H12.61M12.61 289.869L33.7997 253.722M12.61 289.869L-49.7128 253.722M12.61 289.869L-8.57977 253.722M12.61 289.869L-49.7128 326.016M12.61 289.869H-28.523M12.61 289.869L33.7997 326.016M12.61 289.869L-8.57977 326.016M-49.7128 253.722H-8.57977M-49.7128 253.722L-28.523 289.869M-49.7128 253.722V326.016M-28.523 289.869L-49.7128 326.016M-49.7128 326.016H-8.57977M53.743 72.9856H12.61M12.61 72.9856V0.691223M12.61 72.9856L33.7997 36.8384M12.61 72.9856L-49.7128 36.8384M12.61 72.9856L-8.57977 36.8384M12.61 72.9856L-49.7128 109.133M12.61 72.9856H-28.523M12.61 72.9856L33.7997 109.133M12.61 72.9856L-8.57977 109.133M12.61 0.691223L33.7997 36.8384M12.61 0.691223L-49.7128 36.8384M12.61 0.691223L-8.57977 36.8384M-49.7128 36.8384H-8.57977M-49.7128 36.8384L-28.523 72.9856M-49.7128 36.8384V109.133M-28.523 72.9856L-49.7128 109.133M-49.7128 109.133H-8.57977M801.616 289.869H760.483M760.483 289.869L781.673 253.722M760.483 289.869L739.293 253.722M760.483 289.869H719.35M760.483 289.869L781.673 326.016M760.483 289.869L739.293 326.016M116.066 615.193L137.255 651.341M116.066 615.193H74.9327M137.255 651.341L74.9327 615.193M137.255 651.341L74.9327 687.488M137.255 651.341H96.1224M137.255 651.341L199.578 615.193M137.255 651.341L158.445 615.193M137.255 651.341L199.578 687.488M137.255 651.341H178.388M74.9327 615.193L96.1224 579.046M74.9327 615.193L53.743 579.046M74.9327 615.193L12.61 651.341M74.9327 615.193H33.7997M74.9327 615.193V687.488M74.9327 615.193L96.1224 651.341M74.9327 615.193L53.743 651.341M33.7997 615.193L12.61 651.341M12.61 651.341L74.9327 687.488M12.61 651.341H53.743M74.9327 687.488L96.1224 651.341M74.9327 687.488L53.743 651.341M240.711 615.193L261.901 651.341M240.711 615.193H199.578M261.901 651.341L199.578 615.193M261.901 651.341L199.578 687.488M261.901 651.341H220.768M261.901 651.341L324.224 615.193M261.901 651.341L283.091 615.193M261.901 651.341L324.224 687.488M261.901 651.341H303.034M199.578 615.193L220.768 579.046M199.578 615.193L178.388 579.046M199.578 615.193H158.445M199.578 615.193V687.488M199.578 615.193L220.768 651.341M199.578 615.193L178.388 651.341M199.578 687.488L220.768 651.341M199.578 687.488L178.388 651.341M365.357 615.193L386.546 651.341M365.357 615.193H324.224M386.546 651.341L324.224 615.193M386.546 651.341L324.224 687.488M386.546 651.341H345.413M386.546 651.341L448.869 615.193M386.546 651.341L407.736 615.193M386.546 651.341L448.869 687.488M386.546 651.341H427.679M324.224 615.193L345.413 579.046M324.224 615.193L303.034 579.046M324.224 615.193H283.091M324.224 615.193V687.488M324.224 615.193L345.413 651.341M324.224 615.193L303.034 651.341M324.224 687.488L345.413 651.341M324.224 687.488L303.034 651.341M490.002 615.193L511.192 651.341M490.002 615.193H448.869M511.192 651.341L448.869 615.193M511.192 651.341L448.869 687.488M511.192 651.341H470.059M511.192 651.341L573.515 615.193M511.192 651.341L532.382 615.193M511.192 651.341L573.515 687.488M511.192 651.341H552.325M448.869 615.193L470.059 579.046M448.869 615.193L427.679 579.046M448.869 615.193H407.736M448.869 615.193V687.488M448.869 615.193L470.059 651.341M448.869 615.193L427.679 651.341M448.869 687.488L470.059 651.341M448.869 687.488L427.679 651.341M614.648 615.193L635.837 651.341M614.648 615.193H573.515M635.837 651.341L573.515 615.193M635.837 651.341L573.515 687.488M635.837 651.341H594.704M635.837 651.341L698.16 615.193M635.837 651.341L657.027 615.193M635.837 651.341L698.16 687.488M635.837 651.341H676.97M573.515 615.193L594.704 579.046M573.515 615.193L552.325 579.046M573.515 615.193H532.382M573.515 615.193V687.488M573.515 615.193L594.704 651.341M573.515 615.193L552.325 651.341M573.515 687.488L594.704 651.341M573.515 687.488L552.325 651.341M739.293 615.193L760.483 651.341M739.293 615.193H698.16M760.483 651.341L698.16 615.193M760.483 651.341L698.16 687.488M760.483 651.341H719.35M760.483 651.341L822.806 615.193M760.483 651.341L781.673 615.193M760.483 651.341L822.806 687.488M760.483 651.341H801.616M698.16 615.193L719.35 579.046M698.16 615.193L676.97 579.046M698.16 615.193H657.027M698.16 615.193V687.488M698.16 615.193L719.35 651.341M698.16 615.193L676.97 651.341M698.16 687.488L719.35 651.341M698.16 687.488L676.97 651.341M863.939 615.193L885.128 651.341M863.939 615.193H822.806M885.128 651.341L822.806 615.193M885.128 651.341L822.806 687.488M885.128 651.341H843.995M822.806 615.193L843.995 579.046M822.806 615.193L801.616 579.046M822.806 615.193H781.673M822.806 615.193V687.488M822.806 615.193L843.995 651.341M822.806 615.193L801.616 651.341M822.806 687.488L843.995 651.341M822.806 687.488L801.616 651.341" stroke="white" stroke-opacity="0.2" stroke-width="2"/>
</svg>
