<svg width="23" height="15" viewBox="0 0 23 15" fill="none" xmlns="http://www.w3.org/2000/svg">
<path d="M15.708 6.95801C17.368 6.95801 18.698 5.61801 18.698 3.95801C18.698 2.29801 17.368 0.958008 15.708 0.958008C14.048 0.958008 12.708 2.29801 12.708 3.95801C12.708 5.61801 14.048 6.95801 15.708 6.95801ZM7.70798 6.95801C9.36798 6.95801 10.698 5.61801 10.698 3.95801C10.698 2.29801 9.36798 0.958008 7.70798 0.958008C6.04798 0.958008 4.70798 2.29801 4.70798 3.95801C4.70798 5.61801 6.04798 6.95801 7.70798 6.95801ZM7.70798 8.95801C5.37798 8.95801 0.707977 10.128 0.707977 12.458V14.958H14.708V12.458C14.708 10.128 10.038 8.95801 7.70798 8.95801ZM15.708 8.95801C15.418 8.95801 15.088 8.97801 14.738 9.00801C15.898 9.84801 16.708 10.978 16.708 12.458V14.958H22.708V12.458C22.708 10.128 18.038 8.95801 15.708 8.95801Z" fill="white"/>
</svg>
