<svg width="171" height="373" viewBox="0 0 171 373" fill="none" xmlns="http://www.w3.org/2000/svg">
<path d="M250.688 218.792C246.564 197.265 280.673 152.838 277.07 142.254C276.929 135.791 256.956 123.485 246.881 115.532C226.946 99.7939 200.733 89.2076 187.129 86.8029C169.831 86.6163 144.37 71.8019 133.802 64.418C117.231 46.9309 105.537 44.0192 101.762 44.7493C75.3944 45.1807 80.5585 70.0332 86.4365 82.4055C100.129 113.519 149.804 121.038 164.323 119.185C175.938 117.702 203.255 127.827 215.462 133.075C221.712 134.741 237.044 144.06 243.928 148.511L208.139 149.775C195.721 148.072 135.611 168.258 108.536 198.537C86.8766 222.76 99.0112 237.696 107.786 242.137C132.33 254.404 167.564 225.143 179.161 211.255C188.439 200.144 215.23 183.052 227.466 175.895C233.929 171.014 247.686 161.371 249.706 163.365C250.874 164.518 248.935 165.769 246.539 166.572C219.149 186.687 215.755 228.615 213.273 244.933C213.114 258.985 216.76 284.955 220.242 305.305C223.19 342.702 221.063 341.287 231.915 351.316C249.857 362.274 262.338 350.234 269.76 340.116C280.846 325.002 276.798 300.143 272.234 289.772C258.053 264.708 252.193 232.925 250.688 218.792Z" fill="#FFB800"/>
<path d="M237.763 243.27C231.623 211.913 243.163 184.663 249.701 174.957C251.103 172.968 250.045 173.423 249.341 173.898C236.334 185.649 233.952 200.16 230.484 210.789C227.017 221.418 230.756 253.215 231.476 255.332C232.197 257.448 236.953 282.521 239.102 286.75C241.25 290.979 244.255 318.537 243.913 320.307C243.57 322.077 244.733 337.98 246.403 322.766C246.576 321.195 246.997 305.084 247.34 303.314C247.682 301.544 245.439 282.467 237.763 243.27Z" fill="white"/>
<path d="M150.204 207.413C147.672 209.409 138.819 214.675 136.117 215.989C162.08 184.71 183.599 177.147 189.585 173.22C195.57 169.292 216.729 160.672 229.452 159.883C242.175 159.095 239.707 160.171 236.888 161.603C234.632 162.749 230.181 163.414 221.723 167.711C207.244 170.278 185.886 182.744 180.478 186.713C170.273 194.203 153.371 204.918 150.204 207.413Z" fill="white"/>
<path d="M159.421 100.579C155.17 99.1921 131.894 90.0304 121.486 84.2043C124.688 87.3659 125.773 91.2481 135.006 97.5532C144.239 103.858 162.637 109.571 172.568 110.748C183.89 112.09 183.872 109.262 223.92 124.209C227.144 125.412 246.62 135.378 254.069 139.219C254.624 137.519 250.03 134.295 247.664 132.896C218.894 112.22 174.302 105.434 159.421 100.579Z" fill="white"/>
</svg>
