<svg width="128" height="127" viewBox="0 0 128 127" fill="none" xmlns="http://www.w3.org/2000/svg">
<path d="M63.0653 1.42562C63.392 0.565969 64.6081 0.565967 64.9348 1.42562L69.1314 12.4676C69.4189 13.2243 70.4394 13.3435 70.8938 12.6736L77.5237 2.89705C78.0398 2.13592 79.2232 2.41637 79.3428 3.32819L80.8798 15.0403C80.9851 15.8429 81.9506 16.1943 82.5472 15.6472L91.253 7.66315C91.9308 7.04156 93.0175 7.58735 92.9237 8.50219L91.7182 20.2531C91.6356 21.0583 92.4941 21.6229 93.2007 21.2281L103.513 15.467C104.316 15.0185 105.248 15.8002 104.945 16.6687L101.062 27.8249C100.796 28.5893 101.501 29.3367 102.28 29.1155L113.643 25.8879C114.528 25.6366 115.254 26.612 114.76 27.3875L108.409 37.3474C107.973 38.0299 108.487 38.9198 109.296 38.8841L121.097 38.364C122.016 38.3235 122.497 39.4401 121.837 40.0806L113.361 48.3074C112.78 48.8712 113.074 49.8555 113.869 50.0073L125.472 52.2227C126.376 52.3952 126.587 53.5928 125.797 54.0638L115.652 60.1141C114.956 60.5287 115.016 61.5544 115.755 61.8855L126.534 66.717C127.373 67.0931 127.302 68.3072 126.425 68.5833L115.158 72.1308C114.386 72.3739 114.207 73.3857 114.85 73.8782L124.224 81.0654C124.954 81.6249 124.605 82.7899 123.688 82.8564L111.907 83.7097C111.099 83.7682 110.692 84.7117 111.204 85.339L118.668 94.4944C119.249 95.2071 118.641 96.2603 117.733 96.1134L106.072 94.2268C105.273 94.0975 104.66 94.9216 105.013 95.6501L110.165 106.28C110.566 107.108 109.731 107.992 108.882 107.64L97.9701 103.115C97.2224 102.805 96.4353 103.465 96.6108 104.255L99.1723 115.787C99.3717 116.685 98.3557 117.353 97.6103 116.814L88.0365 109.895C87.3804 109.421 86.4623 109.882 86.4508 110.691L86.2839 122.503C86.2709 123.422 85.1282 123.838 84.5271 123.142L76.8071 114.201C76.278 113.589 75.2783 113.826 75.0805 114.61L72.1942 126.065C71.9695 126.957 70.7616 127.098 70.3373 126.282L64.8872 115.802C64.5138 115.084 63.4863 115.084 63.1128 115.802L57.6627 126.282C57.2384 127.098 56.0306 126.957 55.8058 126.065L52.9195 114.61C52.7218 113.826 51.722 113.589 51.193 114.201L43.4729 123.142C42.8719 123.838 41.7291 123.422 41.7161 122.503L41.5492 110.691C41.5378 109.882 40.6196 109.421 39.9636 109.895L30.3897 116.814C29.6444 117.353 28.6283 116.685 28.8277 115.787L31.3892 104.255C31.5648 103.465 30.7777 102.805 30.0299 103.115L19.1184 107.64C18.269 107.992 17.4344 107.108 17.8355 106.28L22.9873 95.6501C23.3403 94.9216 22.7268 94.0975 21.9277 94.2268L10.2668 96.1134C9.35892 96.2603 8.75087 95.2071 9.33199 94.4944L16.7963 85.339C17.3078 84.7117 16.9009 83.7682 16.0935 83.7097L4.31185 82.8564C3.39461 82.7899 3.04583 81.6249 3.77566 81.0654L13.1502 73.8782C13.7926 73.3857 13.6142 72.3739 12.8421 72.1308L1.57475 68.5833C0.697554 68.3072 0.626842 67.0931 1.46604 66.717L12.2453 61.8855C12.984 61.5544 13.0437 60.5287 12.3485 60.1141L2.203 54.0638C1.41315 53.5928 1.62432 52.3952 2.52764 52.2227L14.1306 50.0073C14.9257 49.8555 15.2204 48.8712 14.6395 48.3074L6.16275 40.0806C5.50281 39.4401 5.98449 38.3235 6.90324 38.364L18.7043 38.8841C19.513 38.9198 20.0267 38.0299 19.5915 37.3474L13.2405 27.3875C12.7461 26.612 13.4723 25.6366 14.3569 25.8879L25.72 29.1155C26.4986 29.3367 27.2037 28.5893 26.9376 27.8249L23.0548 16.6687C22.7525 15.8002 23.6841 15.0185 24.4869 15.467L34.7993 21.2281C35.506 21.6229 36.3644 21.0583 36.2818 20.2531L35.0764 8.50219C34.9825 7.58735 36.0693 7.04157 36.747 7.66315L45.4529 15.6472C46.0494 16.1943 47.0149 15.8429 47.1203 15.0403L48.6572 3.32819C48.7769 2.41637 49.9602 2.13592 50.4764 2.89705L57.1063 12.6736C57.5606 13.3435 58.5811 13.2243 58.8687 12.4676L63.0653 1.42562Z" fill="#9327FF"/>
</svg>
