<svg width="128" height="127" viewBox="0 0 128 127" fill="none" xmlns="http://www.w3.org/2000/svg">
<path d="M63.0193 1.42562C63.346 0.565969 64.5621 0.565967 64.8888 1.42562L69.0854 12.4676C69.373 13.2243 70.3935 13.3435 70.8478 12.6736L77.4777 2.89705C77.9939 2.13592 79.1772 2.41637 79.2968 3.32819L80.8338 15.0403C80.9392 15.8429 81.9047 16.1943 82.5012 15.6472L91.2071 7.66315C91.8848 7.04156 92.9716 7.58735 92.8777 8.50219L91.6723 20.2531C91.5897 21.0583 92.4481 21.6229 93.1548 21.2281L103.467 15.467C104.27 15.0185 105.202 15.8002 104.899 16.6687L101.016 27.8249C100.75 28.5893 101.455 29.3367 102.234 29.1155L113.597 25.8879C114.482 25.6366 115.208 26.612 114.714 27.3875L108.363 37.3474C107.927 38.0299 108.441 38.9198 109.25 38.8841L121.051 38.364C121.97 38.3235 122.451 39.4401 121.791 40.0806L113.315 48.3074C112.734 48.8712 113.028 49.8555 113.823 50.0073L125.426 52.2227C126.33 52.3952 126.541 53.5928 125.751 54.0638L115.606 60.1141C114.91 60.5287 114.97 61.5544 115.709 61.8855L126.488 66.717C127.327 67.0931 127.257 68.3072 126.379 68.5833L115.112 72.1308C114.34 72.3739 114.162 73.3857 114.804 73.8782L124.178 81.0654C124.908 81.6249 124.559 82.7899 123.642 82.8564L111.861 83.7097C111.053 83.7682 110.646 84.7117 111.158 85.339L118.622 94.4944C119.203 95.2071 118.595 96.2603 117.687 96.1134L106.026 94.2268C105.227 94.0975 104.614 94.9216 104.967 95.6501L110.119 106.28C110.52 107.108 109.685 107.992 108.836 107.64L97.9241 103.115C97.1764 102.805 96.3893 103.465 96.5649 104.255L99.1264 115.787C99.3258 116.685 98.3097 117.353 97.5644 116.814L87.9905 109.895C87.3345 109.421 86.4163 109.882 86.4049 110.691L86.238 122.503C86.225 123.422 85.0822 123.838 84.4812 123.142L76.7611 114.201C76.2321 113.589 75.2323 113.826 75.0345 114.61L72.1482 126.065C71.9235 126.957 70.7157 127.098 70.2914 126.282L64.8413 115.802C64.4678 115.084 63.4403 115.084 63.0669 115.802L57.6168 126.282C57.1925 127.098 55.9846 126.957 55.7599 126.065L52.8736 114.61C52.6758 113.826 51.676 113.589 51.147 114.201L43.4269 123.142C42.8259 123.838 41.6832 123.422 41.6702 122.503L41.5033 110.691C41.4918 109.882 40.5737 109.421 39.9176 109.895L30.3437 116.814C29.5984 117.353 28.5824 116.685 28.7818 115.787L31.3433 104.255C31.5188 103.465 30.7317 102.805 29.984 103.115L19.0725 107.64C18.223 107.992 17.3885 107.108 17.7895 106.28L22.9413 95.6501C23.2944 94.9216 22.6808 94.0975 21.8817 94.2268L10.2208 96.1134C9.31297 96.2603 8.70491 95.2071 9.28603 94.4944L16.7504 85.339C17.2619 84.7117 16.8549 83.7682 16.0476 83.7097L4.26589 82.8564C3.34865 82.7899 2.99987 81.6249 3.7297 81.0654L13.1042 73.8782C13.7466 73.3857 13.5682 72.3739 12.7961 72.1308L1.52879 68.5833C0.651595 68.3072 0.580883 67.0931 1.42008 66.717L12.1994 61.8855C12.938 61.5544 12.9978 60.5287 12.3025 60.1141L2.15704 54.0638C1.36719 53.5928 1.57836 52.3952 2.48168 52.2227L14.0846 50.0073C14.8797 49.8555 15.1744 48.8712 14.5935 48.3074L6.11679 40.0806C5.45685 39.4401 5.93853 38.3235 6.85728 38.364L18.6584 38.8841C19.4671 38.9198 19.9808 38.0299 19.5456 37.3474L13.1946 27.3875C12.7001 26.612 13.4263 25.6366 14.311 25.8879L25.674 29.1155C26.4527 29.3367 27.1578 28.5893 26.8917 27.8249L23.0088 16.6687C22.7065 15.8002 23.6381 15.0185 24.4409 15.467L34.7533 21.2281C35.46 21.6229 36.3184 21.0583 36.2358 20.2531L35.0304 8.50219C34.9366 7.58735 36.0233 7.04157 36.7011 7.66315L45.4069 15.6472C46.0035 16.1943 46.969 15.8429 47.0743 15.0403L48.6113 3.32819C48.7309 2.41637 49.9143 2.13592 50.4304 2.89705L57.0603 12.6736C57.5146 13.3435 58.5352 13.2243 58.8227 12.4676L63.0193 1.42562Z" fill="#FFB800"/>
</svg>
