<svg width="128" height="127" viewBox="0 0 128 127" fill="none" xmlns="http://www.w3.org/2000/svg">
<path d="M63.1112 1.42562C63.4379 0.565969 64.654 0.565967 64.9807 1.42562L69.1773 12.4676C69.4648 13.2243 70.4853 13.3435 70.9397 12.6736L77.5696 2.89705C78.0857 2.13592 79.2691 2.41637 79.3887 3.32819L80.9257 15.0403C81.031 15.8429 81.9965 16.1943 82.5931 15.6472L91.2989 7.66315C91.9767 7.04156 93.0634 7.58735 92.9696 8.50219L91.7641 20.2531C91.6815 21.0583 92.54 21.6229 93.2466 21.2281L103.559 15.467C104.362 15.0185 105.293 15.8002 104.991 16.6687L101.108 27.8249C100.842 28.5893 101.547 29.3367 102.326 29.1155L113.689 25.8879C114.574 25.6366 115.3 26.612 114.805 27.3875L108.454 37.3474C108.019 38.0299 108.533 38.9198 109.342 38.8841L121.143 38.364C122.061 38.3235 122.543 39.4401 121.883 40.0806L113.406 48.3074C112.826 48.8712 113.12 49.8555 113.915 50.0073L125.518 52.2227C126.422 52.3952 126.633 53.5928 125.843 54.0638L115.697 60.1141C115.002 60.5287 115.062 61.5544 115.801 61.8855L126.58 66.717C127.419 67.0931 127.348 68.3072 126.471 68.5833L115.204 72.1308C114.432 72.3739 114.253 73.3857 114.896 73.8782L124.27 81.0654C125 81.6249 124.651 82.7899 123.734 82.8564L111.952 83.7097C111.145 83.7682 110.738 84.7117 111.25 85.339L118.714 94.4944C119.295 95.2071 118.687 96.2603 117.779 96.1134L106.118 94.2268C105.319 94.0975 104.706 94.9216 105.059 95.6501L110.21 106.28C110.612 107.108 109.777 107.992 108.927 107.64L98.016 103.115C97.2683 102.805 96.4812 103.465 96.6567 104.255L99.2182 115.787C99.4176 116.685 98.4016 117.353 97.6562 116.814L88.0824 109.895C87.4263 109.421 86.5082 109.882 86.4967 110.691L86.3298 122.503C86.3168 123.422 85.1741 123.838 84.573 123.142L76.853 114.201C76.3239 113.589 75.3242 113.826 75.1264 114.61L72.2401 126.065C72.0154 126.957 70.8075 127.098 70.3832 126.282L64.9331 115.802C64.5597 115.084 63.5322 115.084 63.1587 115.802L57.7086 126.282C57.2843 127.098 56.0765 126.957 55.8517 126.065L52.9654 114.61C52.7677 113.826 51.7679 113.589 51.2389 114.201L43.5188 123.142C42.9178 123.838 41.775 123.422 41.762 122.503L41.5951 110.691C41.5837 109.882 40.6655 109.421 40.0095 109.895L30.4356 116.814C29.6903 117.353 28.6742 116.685 28.8736 115.787L31.4351 104.255C31.6106 103.465 30.8236 102.805 30.0758 103.115L19.1643 107.64C18.3149 107.992 17.4803 107.108 17.8814 106.28L23.0332 95.6501C23.3862 94.9216 22.7727 94.0975 21.9736 94.2268L10.3127 96.1134C9.40482 96.2603 8.79677 95.2071 9.37789 94.4944L16.8422 85.339C17.3537 84.7117 16.9468 83.7682 16.1394 83.7097L4.35775 82.8564C3.44051 82.7899 3.09173 81.6249 3.82156 81.0654L13.1961 73.8782C13.8385 73.3857 13.6601 72.3739 12.8879 72.1308L1.62064 68.5833C0.743452 68.3072 0.67274 67.0931 1.51194 66.717L12.2912 61.8855C13.0299 61.5544 13.0896 60.5287 12.3944 60.1141L2.2489 54.0638C1.45905 53.5928 1.67022 52.3952 2.57354 52.2227L14.1765 50.0073C14.9716 49.8555 15.2663 48.8712 14.6854 48.3074L6.20865 40.0806C5.54871 39.4401 6.03039 38.3235 6.94913 38.364L18.7502 38.8841C19.5589 38.9198 20.0726 38.0299 19.6374 37.3474L13.2864 27.3875C12.792 26.612 13.5182 25.6366 14.4028 25.8879L25.7659 29.1155C26.5445 29.3367 27.2496 28.5893 26.9835 27.8249L23.1007 16.6687C22.7984 15.8002 23.73 15.0185 24.5328 15.467L34.8452 21.2281C35.5519 21.6229 36.4103 21.0583 36.3277 20.2531L35.1223 8.50219C35.0284 7.58735 36.1152 7.04157 36.7929 7.66315L45.4988 15.6472C46.0953 16.1943 47.0608 15.8429 47.1661 15.0403L48.7031 3.32819C48.8228 2.41637 50.0061 2.13592 50.5223 2.89705L57.1522 12.6736C57.6065 13.3435 58.627 13.2243 58.9146 12.4676L63.1112 1.42562Z" fill="#2737C7"/>
</svg>
