<svg width="231" height="222" viewBox="0 0 231 222" fill="none" xmlns="http://www.w3.org/2000/svg">
<path d="M45.0803 84.0592C47.1952 82.4984 49.3101 80.9377 51.425 79.377C87.3781 54.4052 196.295 -25.7127 221.145 9.14377C245.466 42.9597 219.559 138.685 157.17 184.987C156.112 186.027 154.526 186.548 153.468 187.588C85.2632 234.93 34.5059 228.167 9.65592 193.831C-13.6079 161.576 12.2995 110.592 45.0803 84.0592Z" fill="#8427E0"/>
<path d="M45.08 84.0592C93.7225 62.7291 197.352 19.0284 212.685 54.4052C225.903 84.0592 201.582 144.408 157.169 184.987C156.112 186.027 154.526 186.548 153.468 187.588C85.2629 234.93 34.5055 228.167 9.65558 193.831C-13.6082 161.576 12.2992 110.592 45.08 84.0592Z" fill="#9327FF"/>
</svg>
