<svg width="226" height="227" viewBox="0 0 226 227" fill="none" xmlns="http://www.w3.org/2000/svg">
<path d="M197.777 217.577C163.939 240.988 111.067 213.935 84.6308 180.119C83.5734 178.559 82.5159 177.518 81.4585 175.957C56.0798 140.581 -25.3435 33.4101 9.55219 9.47879C44.4479 -14.9728 145.434 11.5598 191.433 76.0703C192.49 77.631 193.548 78.6715 194.605 80.2322C239.018 145.263 232.144 193.646 197.777 217.577Z" fill="#00B5FF"/>
<path d="M197.78 217.554C163.942 240.965 111.07 213.912 84.6334 180.096C62.9558 130.673 21.1867 33.3871 56.0824 18.8203C87.8057 5.29387 153.367 32.3467 195.136 80.2093C239.02 145.24 232.147 193.623 197.78 217.554Z" fill="#00C8FF"/>
</svg>
