<svg width="23" height="22" viewBox="0 0 23 22" fill="none" xmlns="http://www.w3.org/2000/svg">
<path d="M22.2506 11.2506L19.8106 8.46061L20.1506 4.77061L16.5406 3.95061L14.6506 0.75061L11.2506 2.21061L7.85061 0.75061L5.96061 3.94061L2.35061 4.75061L2.69061 8.45061L0.25061 11.2506L2.69061 14.0406L2.35061 17.7406L5.96061 18.5606L7.85061 21.7506L11.2506 20.2806L14.6506 21.7406L16.5406 18.5506L20.1506 17.7306L19.8106 14.0406L22.2506 11.2506ZM8.63061 15.2606L6.25061 12.8606C5.86061 12.4706 5.86061 11.8406 6.25061 11.4506L6.32061 11.3806C6.71061 10.9906 7.35061 10.9906 7.74061 11.3806L9.35061 13.0006L14.5006 7.84061C14.8906 7.45061 15.5306 7.45061 15.9206 7.84061L15.9906 7.91061C16.3806 8.30061 16.3806 8.93061 15.9906 9.32061L10.0706 15.2606C9.66061 15.6506 9.03061 15.6506 8.63061 15.2606Z" fill="#FFD600"/>
</svg>
