<svg width="255" height="64" viewBox="0 0 255 64" fill="none" xmlns="http://www.w3.org/2000/svg">
<path d="M253.114 37.7733C251.985 36.4925 250.634 35.4264 249.125 34.6265C240.919 30.3375 232.269 26.9573 223.328 24.546C213.351 21.7261 203.184 19.676 193.017 17.6667C189.307 16.9379 185.59 16.2363 181.874 15.5279L179.651 15.2214L178.969 14.9626L178.498 14.7719C179.231 14.7118 179.969 14.7415 180.694 14.8604C181.087 14.8945 181.481 14.8945 181.874 14.8604L182.106 15.0239H182.188H182.269C182.953 14.9499 183.644 14.989 184.315 15.1397C184.424 15.1574 184.531 15.1825 184.636 15.2146C188.482 15.5348 192.307 16.0184 196.133 16.4951C202.625 17.2989 209.089 18.3205 215.52 19.5125C220.627 20.4035 225.679 21.5838 230.652 23.0475C232.779 23.6946 234.866 24.4778 236.953 25.2339C237.975 25.6085 238.951 26.0444 239.544 24.6413C239.544 24.5664 239.701 24.5323 239.783 24.4779C240.996 23.6741 240.989 22.489 239.68 21.8692C237.314 20.7453 234.907 19.6419 232.513 18.6747C227.522 16.6926 222.216 15.9502 216.993 14.8945C208.355 13.1781 199.681 11.7069 190.971 10.4808C187.766 10.0313 184.574 9.50685 181.342 9.31614C181.141 9.18384 180.9 9.1238 180.66 9.14586C178.321 8.92109 175.975 8.67589 173.63 8.46474C164.444 7.66102 155.218 6.94585 146.012 6.78919C142.677 6.72789 139.329 6.57122 136.001 6.75512C129.182 7.12974 122.499 5.9514 115.776 5.17492C107.102 4.17368 98.4139 3.2746 89.699 2.62072C77.2062 1.68078 64.6998 0.795336 52.1934 0.482021C42.9671 0.24363 33.7339 -0.0151924 24.5143 0.57057C20.8193 0.732878 17.1456 1.21833 13.5354 2.02136C13.2831 2.08266 12.9285 1.98729 12.7921 2.39596C13.0581 2.46408 13.3036 2.53901 13.5627 2.59349C19.1091 3.72983 24.7172 4.54175 30.3584 5.02509C37.7913 5.63129 45.231 6.09445 52.6776 6.55761C59.4013 6.97991 66.1318 7.32047 72.8419 7.91985C75.8833 7.98115 78.8974 8.41026 81.9251 8.60097C82.4433 8.63503 82.9616 8.70313 83.5958 8.76443C83.4936 8.862 83.3731 8.93839 83.2412 8.98919C82.7638 9.18672 82.2388 9.03688 81.8364 9.27527C79.4497 9.52729 77.063 9.7861 74.6831 10.0313C74.2775 10.1479 73.8503 10.1689 73.4352 10.0926C72.5623 10.222 71.6895 10.3583 70.8166 10.474C58.3921 12.136 46.0357 14.1316 33.9248 17.4691C26.2255 19.4802 18.791 22.3929 11.7761 26.1466C7.9437 28.2649 4.49319 30.8191 2.09965 34.5448C-1.0099 39.4012 -0.457551 42.0371 3.58623 45.2247C7.24247 47.9953 11.2683 50.242 15.5471 51.8997C21.4224 54.2098 27.4899 55.9989 33.6793 57.2465C36.407 57.8459 39.1756 58.4248 41.9646 58.7586C42.5412 58.9808 43.1482 59.1139 43.7649 59.1536C55.1393 60.7883 66.5819 61.667 78.0381 62.4026C98.1752 63.6899 118.333 63.3834 138.483 62.8249C151.113 62.4843 163.714 61.6737 176.296 60.5908C189.293 59.4737 202.297 58.418 215.22 56.5994C224.385 55.3053 233.557 53.9907 242.415 51.1505C244.297 50.5511 246.233 50.0471 247.931 48.9505C247.774 49.0237 247.599 49.052 247.427 49.0322C247.597 49.0322 247.761 48.9709 247.931 48.9505C250.245 47.8411 252.177 46.0702 253.482 43.8625C254.086 42.9433 254.376 41.8541 254.31 40.7569C254.243 39.6597 253.824 38.6132 253.114 37.7733ZM194.994 24.0556C194.937 24.0743 194.875 24.0773 194.817 24.0641C194.758 24.0509 194.704 24.022 194.66 23.9806L194.994 24.0556ZM137.89 14.5199C137.792 14.5308 137.693 14.5143 137.604 14.4722L137.89 14.5199ZM34.6476 51.5319C28.1808 50.512 21.8246 48.886 15.663 46.6755C13.5712 45.9732 11.7456 44.6466 10.4327 42.8749C10.0004 42.2947 9.73343 41.6084 9.66019 40.8889C9.58696 40.1693 9.71016 39.4434 10.0167 38.7882C10.8828 36.5132 12.6557 35.1169 14.6538 33.9113C18.4537 31.6772 22.4206 29.7393 26.5192 28.115C26.8465 27.9788 27.1602 27.8085 27.4807 27.6519C27.6399 27.6368 27.7974 27.6071 27.9512 27.5633C33.7809 25.3114 39.7684 23.4902 45.8652 22.1144C57.2601 19.4989 68.8118 17.8506 80.3976 16.4066C95.543 14.5131 110.777 13.9614 126.018 13.5799C130.512 13.471 134.931 14.4245 139.363 15.0239C148.733 16.3044 158.061 17.8097 167.383 19.3967C177.312 21.0927 187.241 22.8023 197.128 24.7435C199.242 25.159 201.363 25.52 203.484 25.9082C207.855 26.8686 212.233 27.8017 216.597 28.8098C224.268 30.5004 231.81 32.7263 239.169 35.4711C240.396 35.9411 241.59 36.5268 242.776 37.1126C243.656 37.5626 244.418 38.2137 244.999 39.0129C245.257 39.2901 245.443 39.6269 245.539 39.9931C245.635 40.3592 245.64 40.7435 245.551 41.1117C245.463 41.4798 245.284 41.8204 245.032 42.1031C244.78 42.3858 244.462 42.6018 244.106 42.7318C241.109 44.0546 237.973 45.037 234.757 45.6606C221.519 48.3783 208.129 50.2913 194.66 51.3889C185.243 52.2335 175.812 52.8873 166.388 53.6638C149.878 55.026 133.328 55.4279 116.771 55.8093C102.103 56.1431 87.4486 55.8979 72.7942 55.1759C60.0491 54.5425 47.2836 53.691 34.6476 51.5387V51.5319Z" fill="#FFB800"/>
</svg>
